<svg width="50" height="51" viewBox="0 0 50 51" fill="none" xmlns="http://www.w3.org/2000/svg">
<path d="M30.6569 27.2763V25.2418C30.6569 21.2853 30.6569 17.3162 30.6569 13.3597C30.6569 12.8479 30.4321 12.6357 29.8951 12.6357C28.7712 12.6357 27.6349 12.6357 26.511 12.6357H25.3871C24.538 12.6357 24.3881 12.773 24.3881 13.6093V31.9193H22.2652V27.9628C22.2652 25.1045 22.2652 22.2338 22.2652 19.3756C22.2652 18.7016 22.0779 18.5269 21.4161 18.5269C19.9301 18.5269 18.4441 18.5269 16.9456 18.5269C16.1339 18.5269 15.984 18.6767 15.984 19.488V31.9568H13.8611V29.448C13.8611 28.0626 13.8611 26.6772 13.8611 25.2793C13.8611 24.5928 13.6738 24.4056 12.9745 24.4056C11.4635 24.4056 9.96504 24.4056 8.45406 24.4056C7.76724 24.4056 7.57993 24.5928 7.57993 25.2918C7.57993 26.6897 7.57993 28.0876 7.57993 29.4979V31.9942H4.23328V33.1674H25.6369V13.8964H29.4581V27.2763H30.6693H30.6569ZM12.5749 31.9193H8.84117V25.6412H12.5749V31.9193ZM20.979 31.9193H17.2328V19.7875H20.979V31.9318V31.9193Z" fill="#743FDD"/>
<path d="M29.4331 45.2119L28.2717 45.5738L29.2083 48.7191H17.4326L19.5804 41.5798H25.5869V40.3567H14.2982C10.8891 40.3567 7.49251 40.3567 4.08342 40.3567C2.64735 40.3567 1.52348 39.4455 1.28621 38.0851C1.23626 37.798 1.24875 37.5109 1.26124 37.2114C1.26124 37.0741 1.26124 36.9243 1.26124 36.7621V36.5374H24.7502V35.3142H1.22378V12.6857C1.23626 10.7885 2.37263 9.65273 4.25824 9.65273H32.8047V25.5913H34.0285V5.85842C34.0285 5.78353 34.0285 5.72113 34.0285 5.65872C33.9785 5.29676 33.8037 5.12202 33.4416 5.0721C33.3417 5.05962 33.2293 5.04714 33.1668 5.04714L32.6299 4.99721L35.8891 1.72712L39.1858 5.02217L38.6863 5.04714C37.9745 5.08458 37.8372 5.17195 37.8372 6.0706V24.7551H39.0734V9.65273H39.548C39.6978 9.65273 39.8227 9.65273 39.9351 9.65273C42.47 9.56536 43.8187 9.65273 44.5804 10.4141C45.3422 11.1754 45.4545 12.5234 45.4046 15.0821C45.3422 18.2024 45.3546 21.3726 45.3796 24.443C45.3796 25.816 45.3921 27.2014 45.3921 28.5743V28.9613H46.6284V23.1824C46.6284 19.6627 46.6284 16.1555 46.6284 12.6358C46.6284 10.127 44.9426 8.42956 42.4451 8.42956H41.1963C40.7218 8.42956 40.2348 8.42956 39.7602 8.42956C39.6479 8.42956 39.5355 8.42956 39.4231 8.4046L39.0859 8.37964V6.29526H39.7727C40.1349 6.29526 40.4845 6.29526 40.8467 6.29526C41.2088 6.29526 41.4086 6.18293 41.5335 5.90834C41.6459 5.64624 41.5959 5.42157 41.3337 5.15947L39.9975 3.82397C38.8237 2.65073 37.6499 1.46501 36.4635 0.291769C36.0764 -0.0951506 35.7892 -0.0951506 35.4021 0.279288C34.3282 1.3402 33.2542 2.41359 32.1928 3.48698L30.532 5.14699C30.2697 5.40909 30.2073 5.63376 30.3072 5.89586C30.4321 6.18293 30.6319 6.30775 31.0315 6.29526C31.3811 6.29526 31.7308 6.29526 32.0804 6.29526H32.7547V8.42956H22.3526C16.2837 8.42956 10.2148 8.42956 4.14585 8.42956C2.0979 8.42956 0.499501 9.6028 0.162338 11.3627C0 12.3237 0 37.3237 0 37.3237C0 39.9198 1.68581 41.5923 4.28322 41.5923H18.2817L17.8571 43.0277C17.3202 44.825 16.7957 46.5973 16.2463 48.3572C16.1713 48.6068 15.7967 48.7441 15.6094 48.7441C15.2348 48.7691 14.8726 48.7691 14.5105 48.7566H14.3357V49.9548H32.3052V48.7316H30.507L29.4331 45.1994V45.2119Z" fill="#743FDD"/>
<path d="M49.3507 46.1106C49.1633 45.8984 48.9635 45.7112 48.7513 45.5115L45.2048 41.9668L45.2922 41.817C48.2393 36.5 45.9291 31.0082 42.2577 28.5494C38.3367 25.9283 33.0919 26.4525 29.7702 29.7975C26.4486 33.155 25.9615 38.4221 28.6089 42.3287C31.0564 45.9483 36.526 48.2074 41.8082 45.2868L41.9456 45.2119L42.1454 45.3991C42.1454 45.3991 42.2453 45.4865 42.2827 45.5364C42.6823 45.9358 43.0694 46.3227 43.4565 46.7221C44.3182 47.5958 45.2173 48.4945 46.1039 49.3557C47.0405 50.2543 48.4266 50.2419 49.3257 49.3182C50.1998 48.4321 50.1998 47.0591 49.3257 46.123L49.3507 46.1106ZM36.8007 45.4116C32.0305 45.4116 28.1593 41.5549 28.1469 36.8245C28.1469 32.0442 32.0305 28.1625 36.8132 28.15C41.546 28.15 45.3921 32.0192 45.4046 36.787C45.4046 39.0711 44.5055 41.2304 42.8696 42.8779C41.2338 44.5129 39.0734 45.4116 36.8007 45.4116ZM48.489 48.457C48.2892 48.6692 48.027 48.7815 47.7523 48.794H47.7398C47.4525 48.794 47.1528 48.6692 46.9156 48.4321C46.0165 47.5459 45.1174 46.6473 44.2308 45.7486L43.007 44.5254L44.518 43.0027L47.4401 45.9233C47.7772 46.2603 48.1144 46.5848 48.4391 46.9343C48.8886 47.4086 48.9136 48.0202 48.5015 48.457H48.489Z" fill="#743FDD"/>
<path d="M5.41958 11.812H4.24576V12.9853H5.41958V11.812Z" fill="#743FDD"/>
<path d="M8.76623 11.812H7.59241V12.9853H8.76623V11.812Z" fill="#743FDD"/>
<path d="M12.1379 11.812H10.9641V12.9853H12.1379V11.812Z" fill="#743FDD"/>
<path d="M36.8381 30.2717H36.8132C35.0649 30.2717 33.4166 30.9457 32.1803 32.1814C30.9565 33.4045 30.2697 35.0271 30.2697 36.7495C30.2697 38.4969 30.944 40.1319 32.1678 41.3676C33.3916 42.6032 35.0399 43.2772 36.7882 43.2772C40.3596 43.2772 43.2692 40.3566 43.2692 36.7745C43.2692 33.2048 40.3846 30.2967 36.8257 30.2842L36.8381 30.2717ZM40.5095 40.4689C39.5105 41.4674 38.1868 42.0291 36.7757 42.0291H36.7507C35.3646 42.0291 34.0534 41.4799 33.0544 40.4939C32.0554 39.4954 31.4935 38.1724 31.4935 36.762C31.4935 33.8663 33.8536 31.4949 36.7507 31.4949C39.6353 31.4949 41.9955 33.8289 42.008 36.6996C42.008 38.1225 41.471 39.4579 40.472 40.4565L40.5095 40.4689Z" fill="#743FDD"/>
<path d="M33.6788 36.525H34.8901C35.0774 35.6138 35.6269 35.0647 36.526 34.8774V33.6667C35.7642 33.7042 35.0275 34.0537 34.478 34.6528C33.966 35.2144 33.6788 35.8884 33.6788 36.525Z" fill="#743FDD"/>
</svg>
