<svg width="50" height="29" viewBox="0 0 50 29" fill="none" xmlns="http://www.w3.org/2000/svg">
<path d="M49.9198 24.3314C49.3466 20.6835 47.3751 18.0546 44.0394 16.5259L43.3746 16.2248L43.5236 16.109C45.3232 14.673 45.8161 13.0053 45.9078 11.8472C46.0339 10.2607 45.5066 8.63934 44.4979 7.51599C42.5149 5.31563 39.1449 4.97978 36.8294 6.74008C35.6259 7.65497 34.8923 8.8478 34.6515 10.2722C34.2503 12.5768 35.0183 14.5224 36.9211 16.0511L37.0587 16.1553L36.9097 16.2364L33.9752 17.904L33.9179 17.8577C32.4966 16.6186 30.8116 15.6921 28.9088 15.0899L28.668 15.0088L28.8858 14.8699C31.0293 13.5728 32.4163 11.5346 32.7831 9.13732C33.1385 6.7864 32.4622 4.43548 30.9262 2.6636C29.459 1.01912 27.453 0.0694853 25.2522 0C25.1719 0 25.1032 0 25.0229 0C22.8794 0 20.8735 0.856985 19.3489 2.4204C17.6868 4.13438 16.8845 6.61269 17.2169 9.05625C17.5493 11.5114 18.9707 13.6423 21.1256 14.893L21.3549 15.0204L21.1027 15.1015C19.2228 15.6921 17.5493 16.6186 16.105 17.8577L16.0477 17.904L12.9642 16.1553L13.1018 16.0511C14.4315 15.0204 15.2682 13.5844 15.4402 12.0094C15.6121 10.4691 15.1536 8.88254 14.1793 7.68971C12.2536 5.32721 8.83769 4.88713 6.39615 6.70533C5.15819 7.62022 4.41311 8.83622 4.16094 10.3186C3.78267 12.6116 4.57359 14.5572 6.51078 16.109L6.65979 16.2248L6.09812 16.468C3.37001 17.6261 1.5016 19.6412 0.527281 22.4322C0.355342 22.907 0.252178 23.4165 0.149014 23.9145C0.103164 24.1461 0.0573132 24.3662 0 24.5978V25.8254C0.286566 26.1496 0.504356 26.3349 0.882623 26.2075C1.29528 26.057 1.34113 25.7211 1.35259 25.2579C1.36405 24.8294 1.4099 24.4125 1.49014 24.0188C2.30399 19.8844 5.71985 17.105 9.77763 17.105C10.0986 17.105 10.431 17.1165 10.7634 17.1629C12.2536 17.325 13.6176 17.8809 14.8097 18.8074L14.9014 18.8768L14.8441 18.9695C14.6607 19.2474 14.4658 19.5022 14.2824 19.7686C13.8698 20.3476 13.4915 20.8919 13.1476 21.471C11.9899 23.4513 11.3709 25.698 11.3251 28.1416C11.3251 28.6511 11.5658 28.9754 11.967 28.9985H12.0014C12.3682 28.9985 12.6204 28.709 12.6547 28.2458C12.6662 28.0952 12.6777 27.9447 12.6891 27.7941C12.7121 27.4235 12.7464 27.0414 12.8152 26.6708C13.7208 21.5984 16.552 18.2515 21.2517 16.7228C25.8712 15.2173 30.204 16.2827 33.7804 19.8033C36.0156 22.0037 37.2192 24.8294 37.3567 28.211C37.3682 28.489 37.4599 28.7206 37.6089 28.848C37.7235 28.9522 37.884 29.0101 38.0559 28.9985C38.4686 28.9754 38.6978 28.6511 38.6864 28.13C38.6405 25.9759 38.2279 24.1577 37.4026 22.548C36.967 21.691 36.4626 20.8919 35.9239 20.0465C35.6832 19.6759 35.4539 19.2938 35.2132 18.9116L35.1559 18.8189L35.282 18.7263C35.3393 18.68 35.4425 18.5989 35.5456 18.5294C38.182 16.8386 40.8872 16.5954 43.5924 17.823C46.7332 19.2359 48.4296 21.7721 48.6474 25.3506C48.6703 25.7211 48.7735 25.9991 48.9569 26.1381C49.0601 26.2191 49.1976 26.2423 49.3466 26.2191C49.5071 26.1844 49.6561 26.0686 49.8166 25.9412C49.8739 25.8949 49.9427 25.8485 50 25.8022V24.5978C50 24.5978 49.9885 24.5515 49.9771 24.5399C49.9542 24.4704 49.9312 24.4009 49.9198 24.3314ZM9.80055 15.7384H9.76616C8.58551 15.7384 7.47364 15.252 6.64833 14.4066C5.83448 13.5728 5.3989 12.461 5.41036 11.2914C5.43329 8.89412 7.3934 6.94853 9.77763 6.94853H9.81201C10.9812 6.94853 12.0816 7.42335 12.8955 8.25717C13.7093 9.10258 14.1564 10.2143 14.1449 11.4072C14.122 13.7928 12.1733 15.7268 9.80055 15.7268V15.7384ZM24.9771 14.5224C23.2462 14.5224 21.6071 13.8276 20.3806 12.5768C19.1541 11.3261 18.4778 9.68162 18.4892 7.94449C18.5122 4.30809 21.4351 1.35496 25.0115 1.35496H25.0229C26.7652 1.35496 28.4044 2.04982 29.6309 3.30055C30.8574 4.55129 31.5337 6.20735 31.5337 7.97923C31.5337 11.5925 28.5878 14.534 24.9885 14.534L24.9771 14.5224ZM40.2682 15.7268H40.2453C39.0532 15.7268 37.9528 15.252 37.1389 14.4066C36.3251 13.5612 35.878 12.4379 35.901 11.2335C35.9354 8.85938 37.884 6.93695 40.2568 6.93695C40.2682 6.93695 40.2797 6.93695 40.3026 6.93695C42.7098 6.96011 44.647 8.94044 44.6355 11.3493C44.6126 13.7581 42.6754 15.7153 40.2911 15.7153L40.2682 15.7268Z" fill="#743FDD"/>
</svg>
