<svg width="50" height="50" viewBox="0 0 50 50" fill="none" xmlns="http://www.w3.org/2000/svg">
<path d="M49.0459 40.0954C45.8197 40.0954 42.6061 40.0954 39.3799 40.0954H35.1745V24.1526C35.1745 23.3241 35.0364 23.186 34.1953 23.186H15.8172C14.9761 23.186 14.8506 23.3116 14.8506 24.1652V34.823C14.8506 34.9611 14.8506 35.0992 14.8255 35.2498L14.7878 35.8775H10.5699C7.38137 35.8775 4.19282 35.8775 0.991715 35.8775C0.477027 35.8775 0.200854 35.9904 0 36.2792V49.2593L0.527241 49.7866H49.4728L50 49.2593V40.5348C49.8494 40.2711 49.5983 40.0954 49.0459 40.0954ZM14.813 48.5438H1.26789V37.1202H14.813V48.5438ZM33.894 48.5438H16.1436V24.4288H33.894V48.5563V48.5438ZM48.7572 48.5438H35.2373V41.3507H48.7572V48.5438Z" fill="#743FDD"/>
<path d="M16.2942 7.58222C16.8591 8.05925 17.424 8.53627 17.9764 9.0133C18.6919 9.62841 19.42 10.2435 20.1481 10.8586C20.4117 11.0846 20.7004 11.4235 20.5247 12.0387C20.3113 12.8044 20.1104 13.6078 19.9221 14.3736L19.7338 15.1393C19.5957 15.6917 19.4576 16.2315 19.3321 16.7336L19.1815 17.3362C19.1815 17.6123 19.307 17.8383 19.4953 17.9513C19.6585 18.0517 19.8468 18.0643 20.0477 17.9764C20.1481 17.9262 20.2485 17.8634 20.3489 17.7881L21.3406 17.1228C22.3198 16.4574 23.3492 15.767 24.3283 15.0766C24.5794 14.9008 24.8054 14.8129 25.0313 14.8129C25.2573 14.8129 25.4833 14.9008 25.7092 15.064C26.7637 15.8047 27.8558 16.5453 28.8978 17.2483L29.7137 17.8006C30.2284 18.1521 30.4167 18.0643 30.605 17.9262C30.8184 17.763 30.9189 17.5621 30.7933 17.06C30.6176 16.357 30.4418 15.6666 30.2535 14.9636C30.0025 13.9719 29.7514 12.9676 29.4878 11.9759C29.3748 11.524 29.4878 11.1725 29.8393 10.8837C30.5799 10.2686 31.308 9.64097 32.0361 9.0133C32.5885 8.54883 33.1408 8.0718 33.6931 7.60733C34.1074 7.25583 34.1451 7.05498 34.0697 6.80391C33.9944 6.57795 33.894 6.38965 33.2287 6.35199C32.6261 6.31433 32.0361 6.28922 31.4335 6.25156C30.4167 6.1888 29.3999 6.12603 28.3705 6.08837C27.8935 6.06326 27.6173 5.84986 27.4541 5.39794C26.9897 4.10494 26.5126 2.8245 26.0482 1.54406L25.6841 0.5649C25.4833 0.0502134 25.3201 0 24.9937 0C24.6673 0 24.5292 0.0502134 24.3409 0.5649L24.0145 1.44363C23.5375 2.74918 23.0479 4.04218 22.5834 5.34772C22.4579 5.68666 22.2445 6.07582 21.6043 6.10092C20.4745 6.15114 19.3572 6.2139 18.2274 6.27667C17.7127 6.30178 17.2106 6.33944 16.6959 6.36454C16.1185 6.4022 16.0055 6.61561 15.9427 6.80391C15.8674 7.04243 15.8925 7.25583 16.2691 7.58222H16.2942ZM19.5204 7.45669C19.7087 7.43158 19.8594 7.41903 20.0225 7.40647L20.6502 7.36881C21.2779 7.33115 21.9181 7.28094 22.5583 7.26839C23.0354 7.25583 23.2613 7.09264 23.412 6.66582C23.6379 6.01305 23.8764 5.37283 24.1149 4.73261L24.3911 4.00452C24.4288 3.91664 24.4664 3.82877 24.5166 3.70324L25.0564 2.41024L26.3243 5.8373C26.4373 6.13858 26.5503 6.42731 26.6507 6.72859C26.7762 7.09264 26.9897 7.24328 27.4039 7.25583C28.1822 7.29349 28.948 7.33115 29.7263 7.38137L30.8812 7.44413L32.3123 7.46924C32.3123 7.46924 29.9899 9.17649 29.6259 9.49033C29.199 9.85437 28.7722 10.2184 28.3454 10.5699C28.0692 10.8084 27.9939 11.0344 28.0818 11.3859C28.2827 12.1642 28.4835 12.9299 28.6844 13.7585L29.2618 16.0181L25.6339 13.5576C25.069 13.181 24.9811 13.181 24.4288 13.5576L20.7757 16.0306L21.0645 14.8883C21.1523 14.5493 21.2277 14.2104 21.3155 13.884C21.4913 13.1434 21.667 12.4404 21.8804 11.7374C22.0813 11.0972 21.9683 10.7331 21.4411 10.3314C20.8636 9.89203 20.3238 9.41501 19.7589 8.92543C19.5079 8.71202 19.2568 8.48606 18.9932 8.2601L18.1898 7.56967L19.533 7.44413L19.5204 7.45669Z" fill="#743FDD"/>
<path d="M24.0773 32.9273L24.3911 33.0277V35.3627C24.3911 37.0323 24.3911 38.7019 24.3911 40.3714C24.3911 40.5346 24.3911 40.7104 24.4288 40.861C24.4916 41.1498 24.7301 41.3381 25.0188 41.3381C25.295 41.3381 25.5209 41.1372 25.5837 40.8736C25.6214 40.6978 25.6214 40.5095 25.6214 40.3338C25.6214 38.4006 25.6214 36.4799 25.6214 34.5467V31.6971C25.6214 31.6971 24.818 31.6594 24.3284 31.6594C24.2782 31.6594 24.228 31.6594 24.1652 31.6594C23.6756 31.6594 23.3994 31.8226 23.3492 32.149C23.3116 32.3624 23.2613 32.6888 24.0648 32.9399L24.0773 32.9273Z" fill="#743FDD"/>
</svg>
