<svg width="40" height="50" viewBox="0 0 40 50" fill="none" xmlns="http://www.w3.org/2000/svg">
<path d="M0.328493 50C0.120872 49.768 -0.0989617 49.5359 0.0475942 49.1939C0.206363 48.8276 0.536114 48.8276 0.878078 48.8276C2.38028 48.8276 3.87026 48.8276 5.29918 48.8276C5.26254 48.2169 5.21369 47.6307 5.21369 47.0567C5.21369 46.7636 5.10377 46.6659 4.83509 46.5559C3.87026 46.1407 2.88101 45.7377 1.98946 45.1881C1.02463 44.6019 0.670457 43.7103 0.878078 42.5134C1.69635 37.6893 2.44134 32.853 3.18633 28.0166C3.40617 26.5755 4.26108 25.6107 5.39689 24.829C7.20441 23.5955 9.2684 22.9238 11.3324 22.2765C12.3217 21.9712 13.3231 21.6536 14.3124 21.3605C14.6055 21.275 14.7032 21.1407 14.7276 20.8232C14.8253 19.5896 14.4834 18.5882 13.7872 17.5012C11.2713 13.532 10.6485 9.23302 12.3583 4.77528C13.543 1.66097 16.1565 0 19.4785 0C20.6876 0 21.8966 0 23.0447 0.427455C25.4751 1.30679 26.9895 3.08989 27.6856 5.48363C29.0779 10.1856 28.2352 14.5457 25.3041 18.4905C25.1697 18.6737 25.0842 18.9179 25.072 19.15C25.0354 19.6629 25.0842 20.1881 25.0476 20.7132C25.0232 21.0796 25.1331 21.2506 25.5117 21.3727C27.4536 21.9834 29.3954 22.594 31.3129 23.2658C32.1556 23.5589 32.9494 23.9863 33.731 24.4138C35.4897 25.3664 36.4667 26.7709 36.7476 28.8349C37.3705 33.4758 38.1766 38.0923 38.9216 42.7088C39.0681 43.576 38.8483 44.2843 38.2132 44.8705C37.3217 45.701 36.2469 46.1896 35.0867 46.5071C34.6836 46.617 34.5493 46.788 34.5615 47.2032C34.5737 47.7284 34.5005 48.2658 34.476 48.8276C35.9294 48.8276 37.4316 48.8276 38.946 48.8276C39.1048 48.8276 39.2757 48.8276 39.4223 48.8886C39.862 49.0718 39.862 49.5237 39.4467 50H0.328493ZM19.8937 48.8276C23.9851 48.8276 28.0764 48.8276 32.1678 48.8276C33.0715 48.8276 33.4135 48.4978 33.4135 47.594C33.4135 42.7943 33.4135 37.9946 33.4135 33.1949C33.4135 32.2545 33.096 31.937 32.1433 31.937C23.9729 31.937 15.8024 31.937 7.63186 31.937C6.69146 31.937 6.36171 32.2545 6.36171 33.1949C6.36171 37.9824 6.36171 42.7699 6.36171 47.5452C6.36171 48.51 6.67925 48.8276 7.65629 48.8276C11.7354 48.8276 15.8146 48.8276 19.8815 48.8276H19.8937ZM15.265 6.05765C13.6284 7.79189 12.4438 9.61163 12.8712 12.0298C13.3109 14.5335 14.3124 16.7807 16.1687 18.5882C17.1702 19.5652 18.2816 20.2736 19.7594 20.0904C19.9304 20.066 20.1135 20.0782 20.2967 20.0904C21.3104 20.2125 22.1287 19.8095 22.8981 19.211C24.7911 17.7211 25.8537 15.7303 26.6109 13.4954C27.0627 12.1519 26.7086 11.1138 25.7682 10.1734C25.3896 9.79482 24.9621 9.46507 24.5346 9.14753C24.3392 9.00098 24.0583 8.87885 23.8263 8.87885C22.1409 8.87885 20.4433 8.87885 18.7579 8.95213C18.2083 8.97655 17.8297 8.89106 17.4633 8.42697C16.8038 7.6087 16.0466 6.8637 15.2772 6.04543L15.265 6.05765ZM5.20148 45.4568C5.20148 45.1759 5.20148 44.9805 5.20148 44.7851C5.20148 40.9013 5.20148 37.0054 5.20148 33.1216C5.20148 31.6194 6.0686 30.7645 7.5708 30.7645C10.9294 30.7645 14.2879 30.7645 17.6465 30.7645H18.2083V29.4944C17.8053 29.3356 17.3168 29.299 17.1336 29.0547C16.926 28.7738 16.987 28.2975 16.9382 27.8578C16.4496 28.151 16.1565 27.9067 15.8878 27.5037C14.9597 26.1114 13.9948 24.7313 13.0666 23.339C12.9079 23.0948 12.7613 23.0337 12.4682 23.1314C11.7476 23.3879 11.0027 23.5833 10.2821 23.8276C8.73103 24.3649 7.1922 24.9389 5.84877 25.9404C5.07935 26.5022 4.49312 27.1861 4.34657 28.1876C4.15116 29.5432 3.93133 30.8867 3.72371 32.2301C3.1497 35.7963 2.5879 39.3503 2.01389 42.9165C1.94061 43.3317 2.03831 43.6859 2.35585 43.979C3.14969 44.7118 4.11452 45.1148 5.21369 45.4568H5.20148ZM34.5859 45.4568C35.6973 45.127 36.6744 44.7118 37.4804 43.9546C37.7613 43.6859 37.8468 43.3683 37.7858 42.9775C36.9919 38.0191 36.2225 33.0606 35.392 28.1021C35.3065 27.5892 35.0012 27.064 34.6714 26.6488C34.3173 26.2213 33.841 25.8671 33.3646 25.574C31.4594 24.3771 29.3099 23.7665 27.1727 23.1192C27.0627 23.0826 26.8307 23.2413 26.7452 23.3635C25.7804 24.7557 24.8278 26.148 23.8751 27.5525C23.6187 27.9311 23.3622 28.2731 22.8248 28.0532C22.7434 28.8105 22.3282 29.2664 21.5791 29.4211V30.7645H22.1287C25.4506 30.7645 28.7848 30.7645 32.1067 30.7645C33.7432 30.7645 34.5859 31.595 34.5859 33.2193C34.5859 37.0787 34.5859 40.9257 34.5859 44.7851V45.4568ZM12.9445 6.83928C13.5185 6.25305 14.1292 5.61798 14.7643 4.99512C15.0818 4.67758 15.436 4.68979 15.7535 5.00733C16.5718 5.8256 17.4023 6.63166 18.1839 7.47435C18.4037 7.7064 18.5869 7.76747 18.8922 7.75525C20.309 7.69419 21.7257 7.64534 23.1424 7.63312C24.0828 7.62091 24.9499 7.86517 25.6582 8.52467C26.1346 8.96434 26.6231 9.40401 27.136 9.8681C27.1971 7.95066 26.8918 6.14314 25.988 4.46996C25.1453 2.91891 23.9118 1.81974 22.1775 1.42892C21.2005 1.20909 20.1746 1.18466 19.1731 1.19687C15.4482 1.25794 13.4086 4.06693 12.9445 6.83928ZM15.9001 20.0415C15.9001 20.3224 15.8634 20.6155 15.9123 20.872C15.9489 21.0674 16.0588 21.2995 16.2176 21.3972C17.329 22.0811 18.4526 22.7406 19.5762 23.3879C19.7227 23.4734 19.9914 23.4856 20.138 23.4123C21.3104 22.765 22.4584 22.0933 23.6065 21.4094C23.7164 21.3483 23.8629 21.214 23.8751 21.1041C23.9118 20.7499 23.8874 20.3835 23.8874 20.0171C21.2005 21.8368 18.5747 21.7513 15.9001 20.0293V20.0415ZM25.7682 22.6917C25.4384 22.5818 25.1697 22.4597 24.8888 22.3864C24.7178 22.3376 24.4858 22.2887 24.3515 22.362C23.1912 23.0093 22.0432 23.681 20.9562 24.3039L23.1302 26.5633L25.7804 22.6917H25.7682ZM18.8922 24.3771C17.903 23.7909 16.926 23.3024 16.0588 22.6673C15.3138 22.1177 14.7276 22.4475 14.0315 22.7162L16.6206 26.5144L18.8922 24.3771ZM21.6524 28.1632C21.6035 27.638 21.7257 27.0762 21.4936 26.7465C21.0539 26.1236 20.4311 25.6351 19.8693 25.0733C19.5029 25.4152 19.1976 25.7816 18.8312 26.0259C18.0129 26.5755 18.135 27.3449 18.2205 28.1632H21.6646H21.6524ZM20.3578 30.7523V29.4211H19.4418V30.7523H20.3578Z" fill="#743FDD"/>
<path d="M23.7164 39.5942C23.7164 41.6949 22.0065 43.4169 19.8937 43.4169C17.7686 43.4169 16.0466 41.6826 16.0588 39.5576C16.0588 37.4569 17.8053 35.7471 19.9059 35.7593C22.0065 35.7593 23.7164 37.4936 23.7164 39.5942ZM17.2313 39.5698C17.2313 41.0476 18.4281 42.2567 19.8937 42.2444C21.347 42.2444 22.5317 41.0476 22.5317 39.5942C22.5317 38.1164 21.3348 36.9074 19.8693 36.9196C18.4159 36.9196 17.2313 38.1042 17.2313 39.5698Z" fill="#743FDD"/>
</svg>
