<svg width="50" height="52" viewBox="0 0 50 52" fill="none" xmlns="http://www.w3.org/2000/svg">
<path d="M43.5659 17.2692C43.7206 17.2692 43.8881 17.2692 44.0428 17.2692C44.816 17.282 45.5377 17.2692 46.1434 16.7665C46.8651 16.1608 46.9296 15.3618 46.9167 14.305V14.1375H47.3291C47.4708 14.1375 47.5868 14.1375 47.7157 14.1375C49.0173 14.0602 49.9452 13.1194 49.971 11.8564C50.0097 10.5161 50.0097 9.18874 49.971 7.89999C49.9323 6.58548 48.9658 5.65758 47.6126 5.63181C47.5095 5.63181 47.4193 5.63181 47.3033 5.63181H46.9425L46.9167 5.27096C46.9167 5.14208 46.9038 5.0261 46.9038 4.91011C46.878 3.28629 46.079 2.50016 44.4552 2.48727C43.1664 2.48727 41.8906 2.48727 40.6018 2.48727H38.1017L38.063 1.88156C37.9986 0.695921 37.2769 0.0128874 36.0784 0.0128874H35.4211C34.4545 0.0128874 33.4622 0.0128874 32.4828 0.0128874C31.4904 0.0257749 30.743 0.760358 30.7043 1.76558C30.7043 1.88156 30.7043 1.99755 30.6914 2.11354V2.4615H19.3505L19.3247 2.16509C19.3247 2.07488 19.3118 1.99755 19.3118 1.90734C19.2603 0.708809 18.5515 0 17.3658 0C16.2059 0 15.0332 0 13.8733 0C12.765 0 12.0304 0.683034 11.9402 1.77847L11.8887 2.48727H9.40138C8.02242 2.48727 6.64347 2.48727 5.2774 2.48727C4.00155 2.48727 3.13809 3.35073 3.09943 4.63947C3.09943 4.80701 3.09943 4.97455 3.09943 5.15497V5.60603H2.68703C2.55815 5.60603 2.44217 5.60603 2.32618 5.60603C0.998776 5.63181 0.0579934 6.57259 0.0193311 7.87422C-0.00644371 9.17585 -0.00644371 10.5033 0.0193311 11.8307C0.045106 13.0936 0.973001 14.0344 2.27463 14.1117C2.40351 14.1117 2.53238 14.1117 2.67414 14.1117H3.08654V14.2922C3.0221 15.3618 3.1252 16.1479 3.83401 16.7408C4.42683 17.2434 5.12275 17.2434 5.85734 17.2434C6.03776 17.2434 6.23107 17.2434 6.4115 17.2434H6.57903V29.9762H6.4115C6.15375 29.9762 5.896 29.9762 5.65114 29.9762C5.10987 29.9762 4.59437 29.9762 4.07887 29.9762C2.23597 30.0277 0.663702 31.2907 0.328629 32.9918C0.17398 33.8037 0.17398 34.6672 0.186868 35.5049C0.186868 35.7626 0.186868 36.0204 0.186868 36.2781C0.186868 36.6518 0.521941 36.7292 0.715252 36.7292C0.895676 36.7292 1.0761 36.7292 1.2823 36.7292H1.75913V39.6933C1.75913 41.3429 1.75913 43.0053 1.75913 44.6549C1.75913 46.4334 3.1252 47.7995 4.91655 47.8639C5.29029 47.8639 5.67691 47.8897 6.05065 47.8639C6.07642 47.8639 6.1022 47.8639 6.12797 47.8639C6.52748 47.8639 6.68213 48.083 6.78523 48.4052C7.26207 49.8615 8.26729 50.7507 9.76223 51.0471C9.9942 51.0987 10.2648 51.1115 10.6128 51.1115C17.1983 51.1115 23.7709 51.1115 30.3563 51.1115H39.326C40.5374 51.1115 42.1483 50.7507 42.8571 48.998C43.2695 47.9928 43.8237 47.8252 44.7645 47.851C45.7568 47.8768 46.6203 47.5675 47.226 46.9747C47.8446 46.369 48.1797 45.4926 48.1797 44.4487C48.1797 42.8378 48.1797 41.214 48.1797 39.6031V36.7421H48.9787C49.6488 36.7421 49.7777 36.6003 49.7906 35.9688C49.7906 35.3116 49.7906 34.7058 49.7906 34.1001C49.739 31.6386 48.0379 29.989 45.5764 29.9762C45.1124 29.9762 44.6485 29.9762 44.1845 29.9762H43.3598V17.2692H43.5273H43.5659ZM46.9425 6.81745L47.0842 6.79167C47.7028 6.68857 48.141 6.7659 48.4245 7.01076C48.708 7.25562 48.8498 7.65513 48.8498 8.23507C48.8498 9.31761 48.8498 10.3873 48.8498 11.4698C48.8498 12.0755 48.7209 12.4621 48.4503 12.707C48.2312 12.9003 47.9219 13.0034 47.4837 13.0034C47.3677 13.0034 47.226 13.0034 47.0971 12.9776H46.9425V6.81745ZM3.06076 12.9648H2.90612C2.76435 12.9905 2.63548 13.0034 2.51949 13.0034C2.06843 13.0034 1.75913 12.9132 1.52716 12.707C1.25652 12.4621 1.14054 12.0755 1.14054 11.4698C1.14054 10.3873 1.14054 9.31761 1.14054 8.23507C1.14054 7.65513 1.2823 7.24273 1.56582 7.01076C1.86223 6.7659 2.30041 6.70146 2.919 6.81745L3.06076 6.84322V12.9776V12.9648ZM31.8126 2.19086C31.8126 1.28874 31.9802 1.12121 32.8823 1.12121H33.8617C34.5963 1.12121 35.3309 1.12121 36.0655 1.12121C36.3361 1.12121 36.581 1.18564 36.7227 1.34029C36.8645 1.48205 36.9418 1.70114 36.9418 1.98466V15.7227C36.9418 15.7227 36.9289 15.8515 36.9031 15.9031L36.8516 16.1222H31.7868V2.19086H31.8126ZM31.0394 17.282H37.7022V24.0479H34.9443V23.4422C34.9443 23.1072 34.9443 22.785 34.9443 22.4499C34.9443 22.1793 34.8669 21.9602 34.7252 21.8313C34.635 21.7411 34.5061 21.6895 34.3514 21.7024C33.9004 21.7153 33.8231 22.1793 33.8231 22.4499C33.8231 22.7721 33.8231 23.0943 33.8231 23.4293V24.0608H31.0394V17.2949V17.282ZM36.8774 29.4993C36.7485 30.7107 35.6531 31.6257 34.403 31.6257C34.3386 31.6257 34.2741 31.6257 34.2226 31.6257C32.8565 31.5226 31.8513 30.4788 31.8255 29.1385C31.8126 28.2879 31.8255 27.4373 31.8255 26.561C31.8255 26.1744 31.8255 25.7749 31.8255 25.3882V25.2207H33.9133C33.9133 25.2207 33.9777 25.9682 34.4417 25.9424C34.6607 25.9295 34.8283 25.9424 34.9958 25.3496L35.0345 25.2207H36.9676V25.646C36.9676 25.8264 36.9676 25.9939 36.9676 26.1744C36.9676 26.5094 36.9676 26.8445 36.9676 27.1796C36.9676 27.9528 36.9676 28.739 36.8903 29.5251L36.8774 29.4993ZM19.3505 3.63425H30.6656V16.1222H19.3505V3.63425ZM19.3118 25.2851C19.3118 25.1305 19.4407 25.0016 19.5567 24.9114C19.9562 24.6021 20.1237 24.2026 20.1237 23.584C20.1237 22.2566 20.1237 20.9421 20.1237 19.6147V17.2692H29.8795V19.576C29.8795 20.9034 29.8795 22.2179 29.8795 23.5453C29.8795 24.1897 30.0599 24.615 30.4594 24.9243C30.5883 25.0274 30.6914 25.2336 30.6914 25.4011C30.6914 25.9295 30.6914 26.4579 30.6914 27.012V27.7595H19.3118V27.0894C19.3118 26.4966 19.3118 25.8908 19.3118 25.2851ZM13.0485 2.22953C13.0485 1.30163 13.2289 1.12121 14.144 1.12121H15.1234C15.858 1.12121 16.5926 1.12121 17.3271 1.12121C17.6107 1.12121 17.8298 1.18564 17.9715 1.3274C18.1133 1.46917 18.1906 1.68825 18.1906 1.98466C18.1906 5.01321 18.1906 8.05464 18.1906 11.0832V15.6325C18.1906 15.7098 18.1906 15.7742 18.1648 15.8644L18.1391 16.1222H13.0485V2.22953ZM12.3011 17.282H18.9639V24.0479H16.1673V23.4036C16.1673 23.0556 16.1673 22.7076 16.1673 22.3726C16.1673 21.9473 15.9611 21.7024 15.626 21.6895C15.3038 21.6767 15.0718 21.9473 15.059 22.3597C15.059 22.7076 15.059 23.0427 15.059 23.4036V24.0608H12.3011V17.2949V17.282ZM16.1544 25.2207H18.1648V25.3882C18.1648 25.8006 18.1648 26.213 18.1648 26.6254C18.1777 27.5533 18.1906 28.5199 18.1262 29.4607C18.0488 30.6334 16.9405 31.6 15.6518 31.6257H15.6002C14.3244 31.6257 13.2289 30.7236 13.1387 29.5766C13.0614 28.6101 13.0743 27.6693 13.1001 26.6641C13.1001 26.2388 13.113 25.8006 13.113 25.3625V25.1949H14.9559L14.9945 25.3109C15.1749 25.8393 15.3167 25.9424 15.626 25.9295C16.0771 25.9037 16.1544 25.2078 16.1544 25.2078V25.2207ZM11.9273 26.7543V27.5275L11.6953 27.4502C10.5226 27.0249 9.62046 26.3806 8.96321 25.4784C8.21574 24.4603 7.82911 23.3778 7.79045 22.2437C7.76468 21.1354 7.76468 20.0657 7.77756 18.9187C7.77756 18.4419 7.77756 17.9522 7.77756 17.4625V17.2949H11.1283V19.576C11.1283 20.9292 11.1283 22.2695 11.1283 23.6227C11.1283 24.2155 11.2958 24.615 11.6567 24.9243C11.7727 25.0145 11.9015 25.2078 11.9015 25.3882C11.9144 25.8393 11.9015 26.2775 11.9015 26.7672L11.9273 26.7543ZM1.34674 35.6337V35.4662C1.34674 35.26 1.34674 35.0409 1.33385 34.8347C1.32096 34.3837 1.30807 33.9068 1.37251 33.4558C1.54005 32.283 2.62259 31.2649 3.79535 31.1618C4.40106 31.1103 4.99388 31.1231 5.61247 31.136C5.88311 31.136 6.16663 31.136 6.43727 31.136H6.60481V35.6337H1.34674ZM6.61769 46.7556H6.45016C6.25685 46.7556 6.06353 46.7556 5.88311 46.7556C5.6898 46.7556 5.50938 46.7556 5.32895 46.7556C5.09698 46.7556 4.865 46.7556 4.64592 46.7169C3.65359 46.5881 2.93189 45.7761 2.919 44.8096C2.90612 42.9022 2.919 40.9949 2.919 39.0876V37.09C2.919 37.09 2.93189 36.9998 2.95766 36.9611L3.00921 36.7936H6.63058V46.7427L6.61769 46.7556ZM5.52226 16.1479C4.56859 16.1479 4.22063 15.8 4.22063 14.8592C4.22063 11.5214 4.22063 8.1964 4.22063 4.85856C4.22063 3.94355 4.56859 3.60848 5.49649 3.60848C7.26207 3.60848 9.04053 3.60848 10.8061 3.60848H11.2829C11.3732 3.60848 11.4763 3.60848 11.5794 3.60848H11.9144V16.1093L11.5794 16.1351C11.4634 16.1351 11.3603 16.1479 11.2572 16.1479C10.1746 16.1479 9.09208 16.1479 8.00954 16.1479C7.17185 16.1479 6.34706 16.1479 5.50938 16.1479H5.52226ZM34.9185 50.0161H15.1363L15.1105 49.7068C15.1105 49.5908 15.0847 49.4877 15.0847 49.3846V47.1164C15.0847 45.3251 15.0847 43.5337 15.0847 41.7295C15.0847 41.5233 15.0976 41.2784 15.2652 41.1238C15.4198 40.9691 15.6647 40.9176 15.8838 40.9434C21.9408 40.9562 28.0881 40.9562 34.1452 40.9434C34.3772 40.9434 34.6092 40.9691 34.7638 41.1238C34.9185 41.2784 34.9443 41.5233 34.9443 41.7295C34.9314 43.6239 34.9443 45.5184 34.9443 47.4128V50.029L34.9185 50.0161ZM37.8182 50.0161H36.0397V41.6651C36.0397 40.3634 35.5113 39.835 34.2226 39.835H15.7807C14.4919 39.835 13.9635 40.3634 13.9635 41.6651V50.0032H12.2237V49.6939C12.198 49.5779 12.198 49.4619 12.198 49.346V48.1732C12.198 45.9823 12.198 43.7786 12.198 41.5877C12.198 39.5 13.5898 38.0952 15.6647 38.0952C21.8893 38.0952 28.1268 38.0952 34.3514 38.0952C36.4263 38.0952 37.8182 39.5 37.8182 41.5877C37.8182 43.4049 37.8182 45.222 37.8182 47.0391V50.0419V50.0161ZM42.2514 47.1035C42.2514 48.0443 41.9421 48.8176 41.3751 49.3331C40.8854 49.7841 40.2281 50.0161 39.4677 50.0161C39.3518 50.0161 39.2229 50.0161 39.094 50.0032H38.9394V47.8897C38.9394 45.8277 38.9394 43.7786 38.9394 41.7295C38.9394 41.2784 38.9136 40.9305 38.862 40.6212C38.5012 38.5721 36.8645 37.1158 34.7638 36.9869C34.6092 36.9869 34.4545 36.974 34.2999 36.974H29.48C24.8921 36.974 20.3041 36.974 15.7162 36.974C13.4996 36.974 11.7856 38.2241 11.2572 40.2346C11.1541 40.6341 11.1025 41.0851 11.0896 41.5748C11.0896 43.4822 11.0896 45.3895 11.0896 47.2969V49.9388L10.9479 49.9646C10.2391 50.1063 9.4787 49.9388 8.88588 49.5135C8.29306 49.1011 7.91932 48.4825 7.81623 47.7866C7.77756 47.5288 7.77756 47.2582 7.77756 47.0391C7.77756 41.2784 7.77756 35.5177 7.77756 29.7571V26.329L8.21574 25.9682L8.30595 26.1873C8.30595 26.1873 8.33172 26.2775 8.3575 26.329C8.38327 26.4063 8.39616 26.4708 8.43482 26.5094C9.24673 27.4373 10.2391 28.1204 11.386 28.507C11.7856 28.6488 11.9402 28.8421 11.9789 29.2673C12.1077 30.8525 12.8939 31.9479 14.3244 32.5021C15.7291 33.0434 17.0178 32.7985 18.1648 31.7675C18.8994 31.1103 19.286 30.2468 19.3376 29.1385V28.9709H30.6527L30.7172 29.3576C30.743 29.5251 30.7687 29.6926 30.8074 29.8602C31.1811 31.5613 32.6632 32.7856 34.3643 32.7856C34.403 32.7856 34.4417 32.7856 34.4674 32.7856C36.3232 32.7341 37.8182 31.3809 38.0244 29.5895C38.1017 28.9323 38.3465 28.623 38.9522 28.4039C39.558 28.1977 40.1121 27.824 40.5374 27.5147C40.8725 27.2698 41.1689 26.9863 41.4911 26.677C41.6328 26.5352 41.7875 26.3935 41.9421 26.2517L42.2128 26.0068L42.2514 26.5481C42.2514 26.677 42.2643 26.7801 42.2643 26.8961V30.0406C42.2643 35.7368 42.2643 41.4202 42.2643 47.1164L42.2514 47.1035ZM42.2514 20.2333C42.2514 20.4652 42.2514 20.6972 42.2514 20.9292C42.2514 21.6638 42.2514 22.437 42.0968 23.1587C41.723 25.0274 40.6018 26.4063 38.7461 27.2827C38.6687 27.3213 38.5914 27.3471 38.4883 27.3729L38.1017 27.5018V26.7543C38.1017 26.2775 38.1017 25.8135 38.1017 25.3496C38.1017 25.182 38.2177 25.0016 38.3337 24.9243C38.7203 24.615 38.8878 24.2026 38.8878 23.5453C38.8878 22.2179 38.8878 20.9034 38.8878 19.576V17.2949H42.2772V17.4625C42.2772 17.746 42.2772 18.0424 42.2772 18.3259C42.2772 18.9574 42.2772 19.6018 42.2772 20.2333H42.2514ZM47.11 44.8998C47.11 45.8921 46.2465 46.7169 45.164 46.7814C44.9707 46.7814 44.7774 46.7943 44.5841 46.7943C44.4294 46.7943 44.2748 46.7943 44.1072 46.7943C43.9397 46.7943 43.7722 46.7943 43.6046 46.7943H43.4371V36.8065H47.1358V36.974C47.1358 37.7344 47.1358 38.4947 47.1358 39.2422C47.1358 41.098 47.1358 43.0182 47.1229 44.8869L47.11 44.8998ZM43.5788 31.1618C43.8624 31.1618 44.1588 31.1618 44.4423 31.1489C45.0738 31.1231 45.731 31.1103 46.3625 31.1876C47.6255 31.3422 48.6049 32.4377 48.6951 33.7908C48.7209 34.1646 48.7209 34.5254 48.708 34.912C48.708 35.0925 48.708 35.26 48.708 35.4533V35.6208H43.3984V31.1618H43.5659H43.5788ZM42.5607 16.1479C41.6586 16.1479 40.7694 16.1479 39.8673 16.1479H38.3981C38.3337 16.1479 38.2821 16.1093 38.2434 16.0835L38.1146 16.0062V3.59559H42.6381C43.2953 3.59559 43.9655 3.59559 44.6227 3.59559C45.4217 3.59559 45.7955 3.96933 45.7955 4.74257C45.7955 8.15774 45.7955 11.5858 45.7955 15.001C45.7955 15.7098 45.4217 16.1351 44.7645 16.1351C44.0299 16.1351 43.2953 16.1351 42.5607 16.1351V16.1479Z" fill="#743FDD"/>
</svg>
