<svg width="185" height="185" viewBox="0 0 185 185" fill="none" xmlns="http://www.w3.org/2000/svg">
<circle cx="92.5" cy="92.5" r="92.5" fill="#FE8A29"/>
<path d="M55.7192 61.9673V54.2653C55.7192 53.5107 56.3301 52.8994 57.0855 52.8994C57.8397 52.8994 58.4514 53.5107 58.4514 54.2653V61.699L55.7192 61.9673Z" fill="white"/>
<path d="M154.094 125.07H39.6443C38.2741 125.07 37.1627 123.958 37.1627 122.589V90.918H154.094C155.281 90.918 156.379 91.5475 156.978 92.5721L166 107.993L156.978 123.415C156.379 124.44 155.281 125.07 154.094 125.07ZM39.7416 122.492H154.532L163.014 107.993L154.532 93.496H39.7416V122.492Z" fill="white"/>
<path d="M88.7286 93.5235H32.3157C31.176 93.5235 30.1145 92.9421 29.5006 91.9813L19.9789 77.0683L29.5006 62.1548C30.1145 61.194 31.176 60.6113 32.3157 60.6113H88.7286V93.5235ZM31.8976 90.9467H86.151V63.1894H31.8976L23.0372 77.0683L31.8976 90.9467Z" fill="white"/>
<path d="M116.582 93.5244H86.151V60.6118H116.582C117.953 60.6118 119.064 61.722 119.064 63.0931V91.0436C119.064 92.4134 117.953 93.5244 116.582 93.5244ZM88.7286 90.9468H116.486V63.1894H88.7286V90.9468Z" fill="white"/>
<path d="M107.993 73.6673L105.291 78.6623L101.094 70.9051V69.4016H104.515L103.236 67.8478L104.515 66.2935H99.198H99.1602V70.9051L90.6437 86.647H102.593H109.611H115.017L107.993 73.6673ZM101.788 76.2527L100.127 78.1847L98.4651 76.2527L100.127 73.1819L101.788 76.2527ZM102.593 84.7137H93.8873L97.48 78.0732L100.127 81.1496L102.773 78.0732L106.366 84.7137H102.593ZM108.564 84.7137L106.39 80.6938L107.993 77.7297L111.772 84.7137H108.565H108.564Z" fill="white"/>
<path d="M58.4514 124.318V132.175C58.4514 132.929 57.8397 133.54 57.0846 133.54C56.3309 133.54 55.7196 132.929 55.7196 132.175V124.318H58.4514Z" fill="white"/>
<path d="M47.4779 78.3698V87.0005H44.767V68.2412H47.4779V75.5881V78.3698Z" fill="white"/>
<path d="M62.8785 87.0005H60.0252L59.074 70.999C59.074 70.8887 59.0106 70.8327 58.8838 70.8327H58.741C58.6138 70.8327 58.5521 70.8887 58.5521 70.999L57.6004 87.0005H54.6993L56.2688 69.2163C56.3162 68.5664 56.6331 68.2412 57.2197 68.2412H60.287C60.9209 68.2412 61.2617 68.5664 61.3099 69.2163L62.8785 87.0005Z" fill="white"/>
<path d="M71.8101 83.862C71.8101 85.9555 71.0321 87.0005 69.4796 87.0005H65.0806V84.4333H68.481C68.893 84.4333 69.0997 84.1398 69.0997 83.5533V81.8887H66.7452C65.2078 81.8887 64.4389 80.8428 64.4389 78.7497V68.2412H67.1494V78.4419C67.1494 79.044 67.3474 79.3454 67.7438 79.3454H69.0754V68.2412H71.8101V83.862Z" fill="white"/>
<path d="M81.2245 83.9332C81.2245 85.9781 80.4487 87.0005 78.8952 87.0005H75.1146C74.4017 87.0005 74.0443 86.6367 74.0443 85.9064V69.3344C74.0443 68.6059 74.4017 68.2412 75.1146 68.2412H80.44V70.8088H76.9932C76.8351 70.8088 76.7548 70.9039 76.7548 71.0941V75.2547H78.8952C80.4487 75.2547 81.2245 76.2697 81.2245 78.299V83.9332ZM78.0391 84.4333C78.4359 84.4333 78.6334 84.1398 78.6334 83.5541V78.632C78.6334 78.029 78.4359 77.7281 78.0391 77.7281H76.7553V84.1715C76.7553 84.3465 76.8351 84.4333 76.9932 84.4333H78.0395H78.0391Z" fill="white"/>
<path d="M50.8379 87.0005L47.8522 77.2127L51.0272 68.2607L53.7542 68.2842L50.567 77.274L53.5293 86.9905L50.8379 87.0005Z" fill="white"/>
<path d="M52.1547 117.426H49.4434V101.519C49.4434 101.329 49.3652 101.235 49.2063 101.235H47.7558C47.5977 101.235 47.5187 101.329 47.5187 101.519V117.426H44.8074V99.7601C44.8074 99.0316 45.1643 98.666 45.878 98.666H51.0849C51.7978 98.666 52.1547 99.0316 52.1547 99.7601V117.426Z" fill="white"/>
<path d="M57.0525 117.426H54.3416V99.7601C54.3416 99.0307 54.6985 98.666 55.4122 98.666H59.192C60.7464 98.666 61.5222 99.6889 61.5222 101.733V107.131C61.5222 109.159 60.7464 110.174 59.192 110.174H57.0525V117.426ZM58.3359 107.701C58.7327 107.701 58.9302 107.408 58.9302 106.822V102.138C58.9302 101.552 58.7327 101.258 58.3359 101.258H57.29C57.1319 101.258 57.0525 101.346 57.0525 101.519V107.701H58.3359Z" fill="white"/>
<path d="M68.7028 117.426V106.679C68.7028 106.584 68.6712 106.537 68.6073 106.537H68.5361C68.4415 106.537 68.3933 106.584 68.3933 106.679L66.1595 116.76C66.064 117.205 65.7861 117.426 65.3259 117.426H64.2809C64.026 117.426 63.8567 117.366 63.769 117.248C63.6813 117.129 63.6383 116.951 63.6383 116.712V98.666H66.2299V108.439C66.2299 108.534 66.2615 108.581 66.3254 108.581H66.397C66.4604 108.581 66.5069 108.534 66.5398 108.439L68.4415 99.3316C68.5361 98.8887 68.8131 98.666 69.2742 98.666H70.6292C71.1359 98.666 71.3903 98.9122 71.3903 99.4032V117.426H68.7033H68.7028Z" fill="white"/>
<path d="M91.5537 117.426H88.6995L87.7492 101.425C87.7492 101.314 87.6853 101.258 87.5581 101.258H87.4162C87.2889 101.258 87.226 101.314 87.226 101.425L86.2747 117.426H83.3732L84.9432 99.6407C84.9914 98.9912 85.3079 98.666 85.8944 98.666H88.9618C89.5948 98.666 89.9356 98.9912 89.9838 99.6407L91.5537 117.426Z" fill="white"/>
<path d="M104.162 114.382C104.162 116.412 103.386 117.427 101.833 117.427H99.264C97.7262 117.427 96.9582 116.412 96.9582 114.382V109.176H95.9118V117.427H93.2964V98.666H95.9118V106.679H96.9582V101.733C96.9582 99.6889 97.7262 98.666 99.264 98.666H101.833C103.385 98.666 104.162 99.6889 104.162 101.733V114.382ZM100.857 114.858C101.269 114.858 101.476 114.565 101.476 113.979V102.138C101.476 101.552 101.269 101.258 100.857 101.258H100.192C99.795 101.258 99.597 101.552 99.597 102.138V113.979C99.597 114.565 99.795 114.858 100.192 114.858H100.857Z" fill="white"/>
<path d="M113.317 117.426H110.582V110.174H108.467C106.912 110.174 106.136 109.16 106.136 107.131V98.666H108.704V106.822C108.704 107.408 108.909 107.701 109.321 107.701H110.582V98.666H113.317V117.426Z" fill="white"/>
<path d="M121.234 117.426H116.621C115.892 117.426 115.527 117.062 115.527 116.332V99.7601C115.527 99.0316 115.892 98.666 116.621 98.666H121.234V101.258H118.475C118.317 101.258 118.238 101.345 118.238 101.519V106.679H121.234V109.175H118.238V114.596C118.238 114.771 118.317 114.858 118.475 114.858H121.234V117.425V117.426Z" fill="white"/>
<path d="M130.696 117.426H128.009V109.176H126.107V117.426H123.397V98.666H126.107V106.679H128.009V98.666H130.696V117.426Z" fill="white"/>
<path d="M137.996 117.426V106.679C137.996 106.584 137.963 106.537 137.901 106.537H137.83C137.735 106.537 137.686 106.584 137.686 106.679L135.452 116.76C135.357 117.205 135.079 117.426 134.619 117.426H133.574C133.32 117.426 133.149 117.366 133.062 117.248C132.975 117.129 132.932 116.951 132.932 116.712V98.666H135.523V108.439C135.523 108.534 135.555 108.581 135.619 108.581H135.689C135.753 108.581 135.801 108.534 135.832 108.439L137.735 99.3316C137.83 98.8887 138.107 98.666 138.567 98.666H139.922C140.429 98.666 140.683 98.9122 140.683 99.4032V117.426H137.996H137.996Z" fill="white"/>
<path d="M147.982 117.426V106.679C147.982 106.584 147.949 106.537 147.886 106.537H147.816C147.72 106.537 147.672 106.584 147.672 106.679L145.438 116.76C145.343 117.205 145.065 117.426 144.606 117.426H143.56C143.306 117.426 143.135 117.366 143.048 117.248C142.961 117.129 142.917 116.951 142.917 116.712V98.666H145.509V108.439C145.509 108.534 145.541 108.581 145.605 108.581H145.675C145.739 108.581 145.786 108.534 145.818 108.439L147.72 99.3316C147.816 98.8887 148.093 98.666 148.552 98.666H149.907C150.415 98.666 150.669 98.9122 150.669 99.4032V117.426H147.982H147.982Z" fill="white"/>
<path d="M148.193 95.9108C148.193 96.7496 147.512 97.43 146.675 97.43C145.836 97.43 145.156 96.7496 145.156 95.9108C145.156 95.0729 145.836 94.3926 146.675 94.3926C147.512 94.3926 148.193 95.0729 148.193 95.9108Z" fill="white"/>
<path d="M76.3363 108.795V117.426H73.6249V98.666H76.3363V106.014V108.795Z" fill="white"/>
<path d="M79.6958 117.425L76.7105 107.638L79.8851 98.6865L82.6121 98.7087L79.4249 107.698L82.3877 117.415L79.6958 117.425Z" fill="white"/>
</svg>
