<svg width="50" height="34" viewBox="0 0 50 34" fill="none" xmlns="http://www.w3.org/2000/svg">
<path d="M47.7505 8.60515C47.1573 5.99808 46.553 3.39102 45.9487 0.795146C45.848 0.358771 45.7025 0.101421 45.5011 0.0230974C45.2997 -0.0552264 45.0087 0.0678538 44.6282 0.358771L42.9272 1.6679C40.8793 3.25675 38.8201 4.8456 36.761 6.42327C36.3358 6.74775 36.1343 7.01629 36.3358 7.46386L36.3805 7.56456L36.291 7.60931C34.7579 8.40374 33.3142 8.5492 31.893 8.05688C31.5013 7.92261 31.1096 7.79953 30.718 7.67645C30.136 7.49742 29.5429 7.3184 28.9722 7.09462C27.6181 6.56873 26.3871 6.65824 25.2121 7.38553C25.0106 7.50861 24.7085 7.48623 24.4399 7.44148C24.2161 7.40791 23.9811 7.35196 23.7572 7.29602C23.3544 7.19532 22.9627 7.1058 22.6046 7.12818C21.6645 7.19532 20.7133 7.3184 19.7957 7.44148C19.113 7.53099 18.3968 7.6205 17.703 7.68764C16.8077 7.77715 15.9236 7.82191 14.9948 7.87785C14.5807 7.90023 14.1667 7.92261 13.7414 7.95618H13.5735L13.6295 7.81072C13.7974 7.34078 13.7414 7.06105 13.4504 6.82608C12.3425 5.9757 11.2347 5.11414 10.1156 4.25258C8.47051 2.98821 6.81426 1.70146 5.15801 0.437094C4.94538 0.269258 4.72157 0.213312 4.54251 0.280447C4.35227 0.347582 4.20679 0.548986 4.12845 0.839902C4.03892 1.19795 3.9494 1.56719 3.87106 1.93644L3.06532 5.42744C2.05814 9.82476 1.05096 14.2221 0.032591 18.6194C-0.056936 19.0334 0.032591 19.2907 0.368317 19.4698C0.961433 19.7943 1.55455 20.1299 2.14767 20.4656C2.8415 20.8572 3.54652 21.2488 4.24036 21.6293C4.6768 21.8642 4.93419 21.7971 5.21396 21.3831C5.30349 21.2488 5.38183 21.1258 5.47135 20.9803L5.67279 20.6558L6.98212 21.6628L6.92617 21.7523C6.32186 22.7817 6.26591 23.7216 6.7695 24.6391C7.26189 25.5343 8.09002 26.0154 9.29863 26.0825H9.39935V26.1944C9.39935 27.1455 9.73508 27.9064 10.4289 28.4994C11.0892 29.0588 11.8949 29.2602 12.8238 29.0924L12.9357 29.07L12.958 29.1819C13.1483 30.2337 13.7078 31.0281 14.5136 31.4309C15.2969 31.8114 16.2594 31.789 17.0875 31.3526L17.1994 31.2967L17.2777 31.5204C17.3001 31.5764 17.3225 31.6323 17.3337 31.6771C17.647 32.5946 18.3185 33.2659 19.1802 33.5121C20.0419 33.7583 20.9707 33.5457 21.7205 32.9191C22.0674 32.6394 22.4031 32.3596 22.6941 32.0575C22.8508 31.9009 22.9963 31.8225 23.1529 31.8225C23.276 31.8225 23.4103 31.8673 23.567 31.9568C24.7532 32.6729 25.6709 33.1988 26.5326 33.6576C27.3159 34.0716 28.2 34.1163 28.9498 33.7583C29.7108 33.4114 30.2479 32.7065 30.4382 31.8449C30.4494 31.7778 30.4718 31.7218 30.4941 31.6547L30.5613 31.4309L30.6732 31.4757C31.6356 31.8449 32.4861 31.789 33.2583 31.2967C34.0193 30.8155 34.4221 30.0659 34.5005 29.0141V28.9022H34.6124C36.6267 28.9917 37.6003 28.0742 37.8465 25.8364V25.7692L37.9473 25.7245C37.9473 25.7245 38.0256 25.6909 38.0704 25.6797C39.8385 25.3664 40.5771 24.5608 40.689 22.7929C40.7002 22.6139 40.745 22.4796 40.8233 22.4013C41.5619 21.6516 42.3117 20.902 43.0839 20.1411L43.7665 19.4586L44.1582 20.0964C44.3596 20.432 44.5611 20.7565 44.7625 21.0698C45.0647 21.5509 45.2997 21.6181 45.7921 21.3384C46.4188 20.9915 47.0454 20.6446 47.6721 20.2866C48.31 19.9285 48.9367 19.5705 49.5746 19.2236C49.9439 19.0222 50.067 18.7537 49.9663 18.3509C49.2165 15.0948 48.4667 11.8276 47.7169 8.57158L47.7505 8.60515ZM4.44179 20.4097L3.69201 19.9845C2.94222 19.5705 2.24838 19.1789 1.53217 18.7537C1.3643 18.653 1.31954 18.3173 1.3643 18.1383C2.09171 14.9158 2.83031 11.7045 3.56891 8.48206L4.923 2.56303C4.94538 2.45113 4.97896 2.35043 5.01253 2.22735L5.11325 1.8693L12.3873 7.49742L12.3314 7.58694L4.44179 20.4097ZM10.1715 24.4825C9.85818 24.751 9.52245 24.8853 9.17553 24.8853C8.95171 24.8853 8.7279 24.8294 8.50408 24.7175C7.95573 24.4489 7.63119 23.979 7.53047 23.2964V23.2293C7.59762 23.1286 7.64238 23.0279 7.69834 22.916C7.81025 22.6699 7.93335 22.4237 8.12359 22.2447C8.71671 21.6628 9.35459 21.1258 9.97008 20.5999L10.317 20.309C10.6639 20.0068 11.0556 19.8502 11.4473 19.8502H11.5032C11.9173 19.8726 12.2866 20.0628 12.5776 20.3985C13.1707 21.081 13.0588 21.9873 12.309 22.6363L11.4585 23.3748C11.0332 23.744 10.608 24.1244 10.1827 24.4937L10.1715 24.4825ZM13.2266 27.5595C13.0364 27.7161 12.8126 27.8168 12.5887 27.9176C12.488 27.9623 12.3873 28.0071 12.2978 28.0518H12.2306C11.5816 27.9847 10.9661 27.5483 10.7199 26.9777C10.4513 26.3623 10.5856 25.7245 11.078 25.2881C12.5328 23.979 13.6519 22.9943 14.7038 22.088C15.0395 21.7971 15.4536 21.6628 15.8565 21.6964C16.2594 21.73 16.6398 21.9314 16.9196 22.267C17.5127 22.9608 17.4568 23.8335 16.7853 24.4377C15.4424 25.6462 14.3121 26.642 13.2266 27.5595ZM16.6622 30.1777C16.4944 30.3232 16.2705 30.4015 16.0579 30.4799C15.9684 30.5134 15.8789 30.547 15.7893 30.5806H15.7334C15.0619 30.5134 14.5472 30.1554 14.301 29.5959C14.0436 28.9917 14.1667 28.3539 14.6255 27.9399C15.9124 26.7763 16.9084 25.8923 17.8708 25.0755C18.4751 24.5608 19.3816 24.6391 19.93 25.2434C20.5007 25.8699 20.4783 26.7986 19.874 27.3469C18.8668 28.2644 17.7813 29.2155 16.651 30.1666L16.6622 30.1777ZM22.8843 30.3344C22.28 30.905 21.631 31.4757 20.8812 32.1023C20.6014 32.3372 20.2881 32.4491 19.9635 32.4491C19.7285 32.4491 19.4823 32.382 19.2473 32.2589C18.7213 31.9904 18.4416 31.5428 18.3409 30.8491V30.782C18.408 30.6924 18.4528 30.5917 18.5087 30.491C18.6206 30.2673 18.7325 30.0323 18.9228 29.8533C19.5495 29.2379 20.2321 28.656 20.8812 28.1078C21.4855 27.5931 22.392 27.6714 22.9403 28.2756C23.4887 28.8798 23.4663 29.7973 22.8955 30.3344H22.8843ZM39.514 23.2405C39.4245 23.7776 39.0887 24.2028 38.6075 24.393C38.0927 24.6056 37.4884 24.5161 36.9848 24.158L35.1719 22.8489C33.6164 21.7188 32.0497 20.5999 30.4941 19.4698C29.8675 19.0222 29.2855 18.6082 28.726 18.2278C28.4574 18.0488 28.0881 17.9033 27.8083 18.2725C27.7076 18.4068 27.674 18.5411 27.6852 18.6753C27.7076 18.8544 27.8419 19.0334 28.0545 19.1789C29.8003 20.4432 31.5573 21.7076 33.3142 22.972L35.7762 24.751C36.4813 25.2657 36.761 25.8588 36.582 26.5301C36.4477 27.0448 36.1008 27.4476 35.6308 27.6154C35.116 27.8057 34.5452 27.705 34.0416 27.3581C33.0792 26.6756 32.1168 25.993 31.1544 25.3105C30.6396 24.9412 30.1248 24.572 29.6101 24.2028C28.6924 23.5538 27.7748 22.9048 26.8571 22.2559C26.5997 22.0768 26.3535 21.9985 26.1521 22.0321C26.0178 22.0545 25.9059 22.1328 25.8164 22.267C25.5366 22.6699 25.8611 23.0279 26.1745 23.2517C26.7452 23.6545 27.3047 24.0573 27.8755 24.4489C29.4086 25.5343 30.9977 26.6532 32.5421 27.7721C32.8778 28.0183 33.1688 28.4211 33.2807 28.8127C33.4485 29.3945 33.2135 29.9652 32.6316 30.312C32.0832 30.6477 31.5013 30.6253 30.9418 30.2449C30.3263 29.8197 29.7108 29.3833 29.0841 28.9581C28.5581 28.5889 28.0322 28.2197 27.5062 27.8616C26.5214 27.1791 25.4694 26.4518 24.3951 25.7245C24.1042 25.5343 23.7125 25.3776 23.4327 25.7469C23.332 25.8811 23.2872 26.0154 23.3096 26.1497C23.3432 26.3287 23.4775 26.5077 23.7349 26.6867C25.3575 27.828 27.0138 28.9693 28.6141 30.077C29.1736 30.4687 29.4198 30.961 29.3303 31.554C29.2296 32.1918 28.8491 32.6282 28.2672 32.7512C28.1441 32.7736 27.9986 32.796 27.8419 32.796C27.6181 32.796 27.3719 32.7624 27.1816 32.6617C26.4319 32.2813 25.6933 31.8449 24.977 31.4309C24.6973 31.2631 24.4175 31.1064 24.1265 30.9386L24.037 30.8827L24.093 30.782C24.5966 29.8533 24.6301 28.8015 24.1601 27.9735C23.6901 27.1343 22.7948 26.6084 21.6869 26.5525H21.5974V26.463C21.2057 24.4154 20.5678 23.7888 18.6206 23.5314H18.5199V23.4195C18.4975 22.3118 18.0275 21.4726 17.1322 20.9244C16.2594 20.3873 15.2969 20.3761 14.2898 20.9132L14.2226 20.9467L14.1667 20.8908C14.1667 20.8908 14.1443 20.8684 14.1331 20.8572C14.0995 20.8348 14.0659 20.8013 14.0548 20.7565C13.719 19.7159 13.014 18.9886 12.1411 18.7425C11.257 18.4963 10.2722 18.7649 9.44411 19.481C9.32101 19.5929 9.18672 19.7047 9.06362 19.8166C8.78385 20.074 8.4817 20.3313 8.17954 20.5663C8.03406 20.6782 7.70953 20.6894 7.55286 20.5887C7.26189 20.4097 7.0045 20.1971 6.72473 19.9845C6.61282 19.895 6.50091 19.8166 6.38901 19.7271L6.31067 19.6712L6.41139 19.4698C6.45615 19.3803 6.48972 19.3019 6.54568 19.2236L8.07883 16.7396C9.55602 14.3452 11.0332 11.9395 12.5104 9.53384C12.6895 9.23174 12.9021 9.10865 13.2378 9.10865C16.3713 9.03033 19.5271 8.76179 22.6158 8.29185C22.7165 8.26947 22.8396 8.26947 22.9963 8.35898L23.1641 8.4485L22.8843 8.61633C22.806 8.67228 22.7165 8.71704 22.6381 8.76179L21.9443 9.13103C21.1945 9.53384 20.4224 9.94784 19.6614 10.3395C19.0235 10.6639 18.7102 11.1227 18.699 11.7381C18.699 12.3423 18.9899 12.8123 19.6278 13.1591C21.7093 14.3116 23.9699 14.4011 26.5438 13.4388L26.6669 13.3941C26.8123 13.3381 26.9578 13.2934 27.0697 13.2039C27.6964 12.7451 28.1888 12.9465 28.726 13.3941C31.9825 16.0795 35.3174 18.776 38.5404 21.3943L38.809 21.6069C39.4133 22.0992 39.6483 22.6139 39.5364 23.2293L39.514 23.2405ZM40.2078 21.2824L40.1295 21.2153L32.184 14.748C31.8482 14.4794 31.5125 14.1997 31.1768 13.9312C30.3263 13.2374 29.4422 12.5325 28.5917 11.8164C28.2112 11.4919 27.8867 11.4696 27.439 11.7157C26.2304 12.3759 24.3951 13.2262 22.3024 12.8682C21.7205 12.7675 21.1498 12.5325 20.6014 12.3199C20.4671 12.264 20.3328 12.208 20.1985 12.1521C19.9188 12.0402 19.8516 11.9059 19.8516 11.8052C19.8516 11.6598 19.9523 11.5255 20.1762 11.4024C20.7357 11.1115 21.2952 10.8094 21.866 10.5073C23.3544 9.71287 24.8875 8.89606 26.4319 8.1352C26.9019 7.90023 27.5509 7.9338 28.0098 8.04569C28.9162 8.26947 29.8898 8.57158 31.0425 9.00795C32.9449 9.72406 34.7355 9.65692 36.526 8.81774C36.6155 8.77298 36.7163 8.73941 36.8282 8.69466L37.0856 8.59396L43.1174 18.3732L40.219 21.2936L40.2078 21.2824ZM48.4667 18.5411C47.8064 18.8991 47.1573 19.2684 46.4635 19.66L45.5906 20.1523L45.5347 20.0628L37.6339 7.24007L37.7123 7.18413L44.9304 1.61195L45.2773 3.08891C45.4787 3.97285 45.6802 4.82323 45.8816 5.68479L46.8776 10.015C47.4819 12.6332 48.075 15.2515 48.6793 17.8697V17.9369C48.7465 18.1271 48.8024 18.362 48.4779 18.5411H48.4667Z" fill="#743FDD"/>
</svg>
