<svg width="50" height="51" viewBox="0 0 50 51" fill="none" xmlns="http://www.w3.org/2000/svg">
<path d="M49.0638 7.28919C48.5612 7.28714 48.0585 7.28817 47.5691 7.28919H46.8883L46.8586 7.2421C46.8402 7.21343 46.8269 7.195 46.8177 7.1817C46.7982 7.15405 46.7798 7.12846 46.7788 7.08853C46.7767 6.90733 46.7747 6.72612 46.7737 6.54389C46.7716 6.27055 46.7686 5.99618 46.7634 5.72283C46.7532 5.11369 46.5044 4.8639 45.9055 4.86185H45.5452C44.1211 4.85468 42.6479 4.84956 41.1993 4.8639C39.8756 4.87721 38.8753 5.88971 38.8743 7.21855C38.8671 13.0786 38.8671 19.4187 38.8743 26.6025C38.8743 27.4972 39.2879 28.1965 40.067 28.6244C40.4274 28.822 40.498 29.0503 40.496 29.3789C40.4908 30.7723 40.4908 32.1902 40.4908 33.561C40.4908 34.9769 40.4908 36.4419 40.4847 37.8823C40.4826 38.518 40.4437 39.0668 40.367 39.5613C39.6165 44.3904 35.7058 48.0841 30.8572 48.5458C28.5998 48.7608 26.3701 48.2499 24.4075 47.0716C22.4409 45.8891 20.9267 44.1426 20.0299 42.0214C19.1904 40.0373 19.213 37.9529 19.2334 35.9371C19.2406 35.2748 19.2478 34.5909 19.2242 33.9162L19.2201 33.8108H19.5027C19.6051 33.8108 19.691 33.8108 19.777 33.8108C20.678 33.8026 20.8489 33.6265 20.8489 32.7051C20.8489 32.2373 20.8489 31.7684 20.8489 31.3046V30.6126H22.6733V32.2731C22.6733 33.0245 22.6733 33.4013 22.8473 33.5804C23.0234 33.7606 23.4175 33.7872 24.2038 33.8384L24.299 33.8446V33.9408C24.299 34.3954 24.2949 34.8468 24.2918 35.2973C24.2847 36.2545 24.2765 37.2445 24.3062 38.2109C24.3563 39.8469 25.1528 41.3682 26.4919 42.3848C27.8392 43.4075 29.5315 43.7679 31.1336 43.3727C33.6869 42.7431 35.4099 40.5492 35.4201 37.912C35.4355 34.0309 35.4273 30.0853 35.4201 26.2687V26.1213C35.4201 25.8039 35.4857 25.5859 35.8245 25.4047C36.619 24.9819 37.0397 24.2703 37.0418 23.3479C37.0479 19.5815 37.0479 15.4967 37.0428 10.4925C37.0428 9.5384 36.6231 8.83507 35.8 8.401C35.4805 8.2331 35.4201 8.02323 35.4222 7.71712C35.4304 6.55822 35.4396 5.24576 35.4171 3.97425C35.4109 3.62719 35.5297 3.39787 35.8266 3.1839C36.5575 2.65564 37.2895 2.10281 37.997 1.5684L38.2181 1.40153C38.4873 1.1978 38.8846 0.784202 38.5191 0.292796C38.386 0.114661 38.2232 0.0204753 38.0338 0.0133089C37.8383 0.00511881 37.6089 0.0941862 37.3735 0.26925C37.0234 0.530309 36.6742 0.793416 36.3262 1.0555C35.7293 1.50595 35.111 1.97177 34.4947 2.41813C34.1456 2.671 33.9992 2.96482 34.0043 3.40299C34.0145 4.21585 34.0135 5.04306 34.0125 5.84261C34.0125 6.47018 34.0114 7.11822 34.0155 7.75603C34.0176 8.07442 33.9173 8.24641 33.6439 8.39178C32.8126 8.832 32.3908 9.55068 32.3908 10.5294C32.3908 14.7811 32.3908 19.0317 32.3908 23.2834C32.3908 24.2284 32.7993 24.9358 33.6388 25.4446C33.8108 25.549 33.9961 25.7998 33.9971 26.0077V26.2268C34.0135 30.1201 34.0288 34.1456 33.9971 38.1044C33.9807 40.1622 32.3202 41.918 30.2164 42.1012C30.0915 42.1125 29.9676 42.1176 29.8447 42.1176C27.8177 42.1176 26.0558 40.6731 25.8295 38.7525C25.7005 37.6591 25.7323 36.5238 25.764 35.4263C25.7783 34.9318 25.7927 34.4199 25.7927 33.9132V33.8108H25.9903C26.0701 33.8108 26.1612 33.8108 26.2523 33.8108C27.1553 33.8026 27.3263 33.6275 27.3273 32.7082C27.3273 32.2424 27.3273 31.7766 27.3273 31.3005V30.5716H27.4297C27.4921 30.5716 27.5464 30.5706 27.5955 30.5696C27.6907 30.5675 27.7716 30.5655 27.8525 30.5737C28.5691 30.6474 29.2366 30.4385 29.7342 29.986C30.288 29.4833 30.5911 28.7237 30.5859 27.8474C30.5522 21.7089 30.5573 15.468 30.5624 9.43192C30.5644 7.16839 30.5655 4.90587 30.5655 2.64233C30.5685 0.913196 29.6502 0 27.9139 0C19.4955 0 11.0771 0 2.65871 0C0.919339 0 0 0.911149 0 2.63517C0 11.071 0 19.5057 0 27.9416C0 29.6349 0.929577 30.5685 2.61674 30.5685C5.70645 30.5685 8.79515 30.5685 11.8849 30.5685H16.1969V30.6709C16.1969 30.9187 16.1969 31.1603 16.1959 31.3978C16.1949 31.9342 16.1939 32.441 16.199 32.9518C16.2051 33.5487 16.456 33.7965 17.0641 33.8077C17.2064 33.8098 17.3487 33.8098 17.4971 33.8087H17.8165V33.9101C17.8165 34.0207 17.8165 34.122 17.8145 34.2172C17.8124 34.4087 17.8114 34.5735 17.8176 34.7393C17.837 35.2952 17.8401 35.8634 17.8432 36.4122C17.8493 37.6223 17.8565 38.8743 18.0407 40.0742C18.5209 43.1854 20.3473 46.0325 23.051 47.8834C25.7957 49.7631 29.1711 50.4428 32.31 49.7508C38.0328 48.4874 41.8883 43.7085 41.9047 37.8598C41.9077 36.6302 41.9077 35.4017 41.9077 34.1722C41.9077 32.5935 41.9077 30.9617 41.9149 29.3564C41.9149 29.1598 41.9999 28.8363 42.1831 28.736C43.1066 28.2292 43.5345 27.4645 43.5314 26.3312C43.5212 22.7931 43.5232 19.1955 43.5242 15.7158C43.5242 14.4289 43.5253 13.142 43.5253 11.8562V11.1334H43.6276C43.8754 11.1334 44.117 11.1334 44.3545 11.1344C44.891 11.1355 45.3977 11.1365 45.9086 11.1314C46.5075 11.1252 46.7542 10.8744 46.7624 10.2653C46.7665 9.93357 46.7655 9.60801 46.7645 9.26403C46.7645 9.11251 46.7645 8.96099 46.7645 8.80641V8.70403H47.5814C48.0943 8.70403 48.5816 8.70505 49.0689 8.70403C49.4088 8.70301 49.9821 8.61087 49.9995 8.01606C50.0057 7.82257 49.9494 7.66389 49.8327 7.54308C49.674 7.37928 49.4078 7.29124 49.0638 7.29021V7.28919ZM33.8364 23.395C33.7698 23.0623 33.7842 22.7142 33.7975 22.3774C33.8026 22.2412 33.8087 22.1 33.8087 21.9638V10.8816C33.8087 10.8427 33.8087 10.8038 33.8087 10.7638C33.8087 10.6686 33.8067 10.5693 33.8118 10.471C33.8405 9.89979 34.206 9.5169 34.7209 9.5169C35.2481 9.5169 35.6208 9.91207 35.628 10.4762C35.6372 11.2368 35.6362 12.0087 35.6341 12.7561C35.6341 13.0591 35.6331 13.3622 35.6331 13.6652V16.9545C35.6331 17.4367 35.6331 17.9189 35.6331 18.4011C35.6341 19.9511 35.6351 21.5533 35.6239 23.1288C35.6218 23.4094 35.5788 23.7789 35.3843 23.9468C35.2 24.1065 34.8888 24.2366 34.639 24.2366C34.5694 24.2366 34.5049 24.2263 34.4486 24.2038C34.1558 24.0871 33.8958 23.6909 33.8364 23.394V23.395ZM25.8766 32.3591H24.1147V30.5941H25.8766V32.3591ZM1.41484 2.72935C1.41484 1.67283 1.67385 1.41484 2.73447 1.41484H27.8289C28.8937 1.41484 29.1537 1.6718 29.1537 2.72526V22.6395H1.41484V2.72935ZM2.73345 29.1527C1.67488 29.1527 1.41586 28.8947 1.41484 27.8361V24.1198H29.1527V24.2222C29.1527 24.6113 29.1527 24.9962 29.1537 25.3791C29.1557 26.3496 29.1578 27.2669 29.1475 28.2047C29.1414 28.7565 28.7995 29.1097 28.2333 29.1496C28.1729 29.1537 28.1135 29.1547 28.0542 29.1547C28.0142 29.1547 27.9753 29.1547 27.9364 29.1547C27.8986 29.1547 27.8597 29.1537 27.8218 29.1537H2.73345V29.1527ZM17.6374 32.3622V30.6064H19.4024V32.3622H17.6374ZM42.1104 26.4765C42.0961 27.1164 41.7388 27.529 41.2003 27.529C41.1972 27.529 41.1931 27.529 41.1901 27.529C40.6424 27.5239 40.2881 27.1041 40.2881 26.4602C40.2851 19.5498 40.2861 13.2946 40.2881 7.33833C40.2881 6.62579 40.625 6.28693 41.3467 6.27362C41.4808 6.27157 41.6139 6.27157 41.7664 6.27259C41.8412 6.27259 41.921 6.27259 42.0081 6.27259H42.1104V26.2626C42.1104 26.3342 42.1104 26.4049 42.1104 26.4765ZM45.3271 9.67968H43.558V6.30228H45.3271V9.6807V9.67968Z" fill="#743FDD"/>
<path d="M18.3694 25.9156C17.6456 25.9115 16.9095 25.9125 16.198 25.9135C15.5899 25.9135 14.9817 25.9135 14.3726 25.9135C14.0737 25.9135 13.7706 25.9135 13.4656 25.9135C13.0438 25.9135 12.6189 25.9135 12.1981 25.9166C11.6617 25.9197 11.3412 26.1828 11.3412 26.6209C11.3412 27.0622 11.6607 27.3263 12.1971 27.3273C14.2334 27.3314 16.3096 27.3314 18.3694 27.3273C18.8976 27.3263 19.2263 27.056 19.2263 26.622C19.2263 26.1899 18.8987 25.9197 18.3694 25.9166V25.9156Z" fill="#743FDD"/>
<path d="M5.57234 25.9176C5.57234 25.9176 5.5662 25.9176 5.56313 25.9176C5.38295 25.9176 5.21096 25.9882 5.07787 26.1183C4.94171 26.2513 4.86492 26.4274 4.8639 26.6148C4.8598 26.9956 5.17922 27.3212 5.55904 27.3253C5.56108 27.3253 5.56415 27.3253 5.5662 27.3253C5.94295 27.3253 6.26441 27.0079 6.26953 26.6291C6.27465 26.2483 5.95523 25.9227 5.57337 25.9176H5.57234Z" fill="#743FDD"/>
<path d="M8.8402 25.9247C8.45424 25.9042 8.12357 26.2021 8.10207 26.5891C8.09183 26.7734 8.15633 26.9526 8.28328 27.0928C8.41022 27.2341 8.58324 27.316 8.76854 27.3252C9.1504 27.3426 9.49131 27.0386 9.50974 26.6598C9.52817 26.2748 9.22821 25.9452 8.84123 25.9247H8.8402Z" fill="#743FDD"/>
<path d="M21.7591 25.9196C21.37 25.9237 21.0557 26.24 21.0598 26.626C21.0629 27.0058 21.3844 27.3252 21.7631 27.3252H21.7672C22.1542 27.3222 22.4675 27.0048 22.4665 26.6168C22.4665 26.4305 22.3917 26.2554 22.2566 26.1223C22.1225 25.9902 21.9433 25.9176 21.7601 25.9196H21.7591Z" fill="#743FDD"/>
<path d="M25.0054 25.9247H25.0013C24.6092 25.9247 24.3021 26.2298 24.299 26.6198C24.297 27.0037 24.6113 27.3201 25.0003 27.3252C25.0034 27.3252 25.0064 27.3252 25.0095 27.3252C25.1907 27.3252 25.3627 27.2546 25.4948 27.1245C25.6299 26.9914 25.7046 26.8154 25.7057 26.627C25.7077 26.242 25.3934 25.9267 25.0054 25.9247Z" fill="#743FDD"/>
<path d="M22.3221 6.33912C22.4787 6.17737 22.5566 5.96749 22.5535 5.71258C22.5453 5.11982 22.0969 4.77481 21.325 4.76867C21.0004 4.7656 20.7025 4.76355 20.4169 4.76355C20.1661 4.76355 19.9245 4.76457 19.6808 4.76867C16.3812 4.81781 13.9549 6.31762 12.4674 9.22613C12.0661 10.0114 11.6668 10.814 11.2808 11.59C10.8703 12.4152 10.4465 13.269 10.0185 14.1023C8.95587 16.1724 7.23185 17.2872 4.89255 17.4173C4.18513 17.4562 3.76232 17.838 3.78894 18.4134C3.8176 19.0215 4.29877 19.3163 5.26111 19.3163C5.27544 19.3163 5.28977 19.3163 5.30411 19.3163C8.09181 19.1054 10.2765 17.6568 11.6238 15.1281C12.151 14.1381 12.6568 13.1154 13.1461 12.1265C13.5075 11.3965 13.8802 10.642 14.26 9.90489C15.2295 8.02321 16.7928 6.94928 18.9079 6.71382C19.4648 6.65137 20.0361 6.65956 20.5879 6.66775C20.8387 6.67082 21.0987 6.67491 21.3526 6.67184C21.7805 6.66672 22.1163 6.55206 22.3231 6.33912H22.3221Z" fill="#743FDD"/>
<path d="M25.7589 13.2076C24.3717 13.1912 22.9978 13.1912 21.6761 13.2076C21.0783 13.2148 20.6636 13.6058 20.6667 14.1576C20.6698 14.7043 21.0803 15.0842 21.6884 15.1005C22.144 15.1128 22.6098 15.1097 23.0592 15.1067C23.2599 15.1057 23.4616 15.1036 23.6622 15.1036H23.6694C23.8823 15.1036 24.0943 15.1046 24.3072 15.1067C24.7863 15.1097 25.2818 15.1128 25.7681 15.0995C26.3762 15.0821 26.7837 14.7002 26.7806 14.1474C26.7775 13.6007 26.3578 13.2137 25.7599 13.2066L25.7589 13.2076Z" fill="#743FDD"/>
<path d="M25.7486 17.4254C25.2961 17.4142 24.8354 17.4162 24.3891 17.4193C24.1843 17.4203 23.9827 17.4224 23.7748 17.4213C23.5711 17.4213 23.3663 17.4203 23.1626 17.4193C22.9527 17.4183 22.7388 17.4172 22.5248 17.4172C22.2617 17.4172 21.9966 17.4193 21.7345 17.4244C21.0772 17.4377 20.6585 17.8145 20.6667 18.3847C20.6749 18.9365 21.0885 19.3122 21.6956 19.3194C23.1555 19.3358 24.4904 19.3358 25.7783 19.3184C26.0752 19.3143 26.3291 19.217 26.5124 19.0368C26.6885 18.8638 26.7837 18.6232 26.7796 18.3601C26.7714 17.8165 26.3578 17.4408 25.7486 17.4254Z" fill="#743FDD"/>
</svg>
