<svg width="50" height="58" viewBox="0 0 50 58" fill="none" xmlns="http://www.w3.org/2000/svg">
<path d="M49.9967 48.3417H45.1955V41.8186C45.1955 29.6465 45.1955 17.4758 45.1955 5.30376V5.22263C45.1955 4.91748 45.1955 4.60143 45.1676 4.29629C45.0465 2.97882 44.4932 1.9217 43.4772 1.06317C42.8027 0.494049 41.9999 0.243392 41.0966 0H4.19914C4.0393 0.049647 3.87462 0.0932396 3.71599 0.135621C3.36483 0.228861 3.00277 0.325733 2.68309 0.48194C0.924861 1.34289 0.0251595 2.84683 0.00941775 4.95381C-0.00390218 6.6854 -0.000269474 8.44726 0.00336324 10.151C0.00457414 10.7589 0.00578504 11.3667 0.00699595 11.9746C0.00699595 12.0642 0.0166832 12.1575 0.0275813 12.2652C0.0300031 12.2907 0.0324249 12.3161 0.0360576 12.3439H7.73861V21.4814C7.73861 31.8371 7.73861 42.1939 7.73861 52.5496C7.73861 53.9966 8.03286 55.0259 8.69281 55.8856C9.66274 57.1498 11.0056 57.7637 12.7953 57.7637H12.799C20.6735 57.7601 28.5492 57.7601 36.4237 57.7613H45.0235C45.1519 57.7613 45.2839 57.7613 45.4122 57.7552C47.6573 57.6438 49.2823 56.3554 49.8732 54.2218C49.9519 53.9361 49.9907 53.6927 49.9931 53.4747C50.0016 52.173 50.0004 50.8955 49.9991 49.5417V48.3405L49.9967 48.3417ZM7.70108 9.39298V10.6136H1.84999L1.81366 10.5676C1.80761 10.5591 1.79913 10.5518 1.79308 10.5445C1.76281 10.5143 1.718 10.4695 1.718 10.4004C1.71679 9.83859 1.70953 9.27673 1.70347 8.71487C1.68894 7.35624 1.6732 5.9528 1.72527 4.57237C1.78581 3.00304 2.88895 1.85147 4.47281 1.70616C5.93679 1.57175 7.23367 2.4763 7.626 3.90395L7.63932 3.95118C7.66838 4.05168 7.69744 4.15461 7.69744 4.2648C7.70108 5.96128 7.70108 7.65775 7.70108 9.39177V9.39298ZM15.4872 48.9084C15.4823 49.3625 15.4823 49.8263 15.4836 50.2743C15.4848 51.3132 15.4872 52.3885 15.4145 53.442C15.3104 54.9435 14.0426 56.0697 12.4636 56.0697C12.4563 56.0697 12.4502 56.0697 12.443 56.0697C10.8761 56.06 9.62883 54.9193 9.47868 53.3585C9.45083 53.0691 9.43751 52.7518 9.43751 52.3861C9.43751 46.5072 9.43751 40.6294 9.43751 34.7505C9.43751 25.4871 9.43751 16.2237 9.43509 6.96148C9.43509 6.72172 9.43872 6.48075 9.44357 6.23978C9.46899 4.77217 9.49563 3.2537 8.48816 1.91081L8.35133 1.72796L8.58019 1.71706C8.67828 1.71222 8.76304 1.70737 8.8369 1.70374C8.97252 1.69648 9.08029 1.69042 9.18806 1.69042C19.534 1.69042 29.88 1.688 40.2271 1.69042C41.9357 1.69042 43.1055 2.55137 43.436 4.05289C43.499 4.33746 43.5075 4.63897 43.5075 4.92232C43.5099 17.8802 43.5099 30.8393 43.5099 43.7972V48.3356H15.4872V48.4567C15.4872 48.6153 15.4872 48.7619 15.4872 48.9084ZM48.425 50.1895C48.402 50.5758 48.3899 50.9693 48.379 51.3496C48.3535 52.2154 48.3269 53.1114 48.161 53.9663C47.9382 55.1167 47.0457 55.8553 45.6496 56.0455C45.434 56.0745 45.2137 56.0745 45.0017 56.0733H44.8988C37.8344 56.0733 30.77 56.0733 23.7056 56.0733H16.0721L16.221 55.8783C17.2164 54.573 17.1994 53.1732 17.1812 51.6923C17.1752 51.1946 17.1691 50.6799 17.2055 50.1726L17.2139 50.06H48.4322L48.425 50.1883V50.1895Z" fill="#743FDD"/>
<path d="M19.356 7.85513C19.3536 8.24988 19.3512 8.65675 19.3596 9.05756C19.4505 13.8334 21.6785 17.5859 25.9845 20.2148L25.9918 20.2112C26.0281 20.1942 26.0572 20.1821 26.0814 20.1664L26.2013 20.0889C26.441 19.9327 26.6892 19.7704 26.929 19.6069C29.9054 17.5738 31.7097 14.9401 32.2933 11.7785C32.5355 10.467 32.5561 9.08783 32.5767 7.75341C32.5839 7.26905 32.5924 6.76774 32.6106 6.27611C32.613 6.20588 32.4229 5.9976 32.263 5.94311C30.3898 5.30618 28.4414 4.66561 26.3054 3.98266C26.2109 3.95239 26.102 3.93665 25.993 3.93665C25.884 3.93665 25.7738 3.95239 25.6781 3.98266C24.7312 4.2866 23.7698 4.60143 22.8398 4.90779C21.8154 5.24442 20.757 5.59195 19.712 5.92495C19.419 6.01819 19.3403 6.13201 19.3487 6.45169C19.3621 6.92031 19.3584 7.39499 19.356 7.85513ZM22.6121 6.69872C22.881 6.6079 23.1413 6.51708 23.4029 6.42747C24.0919 6.19014 24.8051 5.94311 25.5147 5.72636C25.8162 5.63433 26.1722 5.6307 26.4434 5.71667C27.0937 5.92374 27.75 6.14775 28.3845 6.36451C29.0287 6.58489 29.6959 6.81375 30.3559 7.02203C30.8148 7.16734 30.9855 7.41315 30.9419 7.87087C30.9201 8.11063 30.925 8.36008 30.931 8.60226C30.9335 8.71366 30.9359 8.82385 30.9359 8.93525C30.9092 12.6515 29.4295 15.6582 26.5391 17.8717C26.3587 18.0098 26.2061 18.0788 26.0535 18.0788C25.9009 18.0788 25.7544 18.0134 25.574 17.8826C22.617 15.7296 21.0937 12.7096 21.0452 8.90498C21.0246 7.28358 21.0682 7.22183 22.6109 6.69872H22.6121Z" fill="#743FDD"/>
<path d="M41.3036 38.6957H17.4513V40.3098H41.3036V38.6957Z" fill="#743FDD"/>
<path d="M31.6491 30.9652H11.6559V32.5806H31.6491V30.9652Z" fill="#743FDD"/>
<path d="M41.3085 27.1145H22.2707V28.7311H41.3085V27.1145Z" fill="#743FDD"/>
<path d="M41.2855 34.8256H22.2743V36.4445H41.2855V34.8256Z" fill="#743FDD"/>
<path d="M26.8055 42.5802H11.6535V44.1871H26.8055V42.5802Z" fill="#743FDD"/>
<path d="M32.5815 22.2661H19.3827V23.8815H32.5815V22.2661Z" fill="#743FDD"/>
<path d="M41.3061 42.5778H29.0239V44.1871H41.3061V42.5778Z" fill="#743FDD"/>
<path d="M20.022 27.1145H11.6486V28.7286H20.022V27.1145Z" fill="#743FDD"/>
<path d="M20.0281 34.8292H11.6644V36.4603H20.0281V34.8292Z" fill="#743FDD"/>
<path d="M41.3061 30.9713H33.9038V32.5915H41.3061V30.9713Z" fill="#743FDD"/>
<path d="M11.6184 40.3097H15.2196V38.6641H14.5705C13.6176 38.6617 12.7179 38.6605 11.8036 38.6774C11.7564 38.6859 11.6377 38.8082 11.6317 38.8591C11.6099 39.2369 11.6123 39.611 11.6159 40.007C11.6159 40.1075 11.6171 40.208 11.6184 40.3097Z" fill="#743FDD"/>
<path d="M28.7514 9.75862L27.0719 9.58667C26.7825 11.2868 26.0075 12.6163 24.7082 13.6468L25.6358 15.0684C27.4546 13.6178 28.4753 11.8789 28.7514 9.75862Z" fill="#743FDD"/>
</svg>
