<svg width="185" height="62" viewBox="0 0 185 62" fill="none" xmlns="http://www.w3.org/2000/svg">
<path d="M0.124847 16.4256C0.124847 15.3729 0.336122 14.9101 1.59897 14.9101C4.92415 14.9101 8.03805 14.9101 11.4473 14.9101C14.0138 14.9101 16.4122 15.289 18.6858 17.4807C22.556 21.1854 21.0002 27.0411 19.3581 29.1464C17.7591 31.2518 15.74 31.8009 15.74 31.8009C15.74 31.8009 17.0436 32.8943 17.9704 35.1699C18.4746 36.3905 21.3772 42.836 21.3772 42.8768C21.5885 43.2557 21.6317 44.0158 20.7458 44.0158C19.9895 44.0158 18.7266 44.0158 18.1792 44.0158C16.8756 44.0158 16.5395 43.8455 16.0329 42.7929C15.0653 40.7307 13.2983 36.0955 12.6669 34.664C12.0355 33.2324 11.7402 32.6857 9.42575 32.6857C7.40663 32.6857 4.66966 32.6857 4.66966 32.6857V43.2149C4.66966 43.6777 4.29273 44.0566 3.82936 44.0566H0.967546C0.504182 44.0566 0.124847 43.6777 0.124847 43.2149C0.124847 40.8985 0.124847 20.1327 0.124847 16.4256ZM4.71287 28.5566H11.4473C13.7185 28.5566 16.3282 26.9979 16.3282 23.967C16.3282 21.1447 14.8541 18.9961 11.7402 18.9961C9.84589 18.9961 4.71287 18.953 4.71287 18.953V28.5566Z" fill="#6162AC"/>
<path d="M152.26 20.092C152.26 20.092 156.845 14.1092 156.972 13.9845C157.309 13.6057 157.731 13.5193 158.108 13.8143C158.824 14.3202 159.582 14.8262 160.254 15.3729C160.55 15.6271 160.634 16.006 160.422 16.3417C160.298 16.5527 156.552 21.4396 156.552 21.4396C156.552 21.4396 156.509 43.047 156.509 43.2557C156.425 43.7208 156.173 43.9726 155.669 43.9726C154.826 43.9726 153.899 44.0158 153.1 43.9726C152.68 43.9726 152.344 43.5938 152.3 43.1717C152.26 43.047 152.26 20.092 152.26 20.092Z" fill="#6162AC"/>
<path d="M160.466 24.5976C160.466 24.5976 165.054 18.6173 165.179 18.4902C165.515 18.1113 165.937 18.0274 166.314 18.3223C167.03 18.8283 167.704 19.375 168.42 19.9217C168.715 20.1759 168.799 20.5548 168.588 20.8905C168.461 21.1015 164.715 25.9884 164.715 25.9884C164.715 25.9884 164.674 43.0878 164.674 43.342C164.59 43.8048 164.338 44.0565 163.832 44.0565C162.991 44.0565 162.149 44.0565 161.308 44.0565C160.886 44.0565 160.55 43.6777 160.507 43.2556C160.466 43.047 160.466 24.5976 160.466 24.5976Z" fill="#6162AC"/>
<path d="M184.832 30.283C184.496 24.6816 182.602 19.5429 179.615 15.2482C179.276 14.7423 178.604 14.6584 178.141 14.9941L176.415 16.3009C175.994 16.6366 175.867 17.2265 176.206 17.6893C178.729 21.3557 180.33 25.7774 180.623 30.5372C181.507 44.6464 170.777 56.8613 156.677 57.7461C150.325 58.1682 144.054 56.1875 139.086 52.1854L138.371 51.5955C137.867 51.1759 137.108 51.2598 136.731 51.7658L135.593 53.1973C135.173 53.7033 135.257 54.461 135.763 54.8399L136.479 55.4298C141.78 59.6836 148.303 61.9568 155.078 61.9568C155.71 61.9568 156.341 61.9568 156.972 61.9161C173.385 60.9042 185.884 46.711 184.832 30.283Z" fill="#6162AC"/>
<path d="M142.623 11.4571C142.495 12.5506 141.948 13.2676 141.148 13.8574C140.308 14.4881 139.465 14.6991 138.539 14.5744C137.194 14.4042 136.479 13.3515 135.679 12.2988C134.877 11.203 134.078 10.2342 134.248 8.92976C134.373 8.00178 134.753 7.2872 135.636 6.61339C137.487 5.22261 139.17 5.8125 140.224 6.86517L138.455 8.21279C137.91 7.79316 137.403 7.70684 136.815 8.17203C136.479 8.42381 136.352 8.71875 136.352 9.01369C136.352 9.34939 136.436 9.64433 137.403 10.9943C138.414 12.2988 138.666 12.4667 139.002 12.5506C139.254 12.6369 139.593 12.5506 139.929 12.342C140.308 12.047 140.476 11.7521 140.517 11.4571C140.56 11.119 140.433 10.7402 140.224 10.4884L140.14 10.4045L139.086 11.203L137.994 9.73066L140.812 7.58214L141.571 8.59166C142.411 9.6875 142.747 10.4884 142.623 11.4571Z" fill="#6162AC"/>
<path d="M149.398 9.73066L146.872 7.03302L146.157 7.24404L147.167 10.4452L145.062 11.119L142.327 2.52738L145.736 1.43154C147.631 0.841658 149.102 1.85357 149.523 3.24435C149.902 4.42172 149.398 5.39047 148.85 5.93958L151.839 8.92976L149.398 9.73066ZM146.2 3.4122L145.021 3.79107L145.568 5.51755L146.747 5.13869C147.335 4.97083 147.547 4.42172 147.379 3.95892C147.251 3.53689 146.788 3.20119 146.2 3.4122Z" fill="#6162AC"/>
<path d="M158.319 8.2128C157.647 8.84584 156.888 9.18155 155.794 9.14078C154.701 9.09762 153.943 8.71875 153.311 8.04494C152.384 7.07619 152.468 5.8125 152.512 4.46489C152.555 3.11727 152.555 1.85358 153.522 0.925591C154.195 0.294945 154.953 -0.0431585 156.046 3.59118e-06C157.141 0.0431657 157.899 0.422033 158.531 1.09584C159.455 2.06459 159.371 3.32828 159.33 4.6759C159.33 6.02352 159.33 7.28721 158.319 8.2128ZM156.888 2.4003C156.72 2.18928 156.425 1.98067 156.005 1.98067C155.585 1.98067 155.289 2.14852 155.121 2.35953C154.91 2.61131 154.785 2.90625 154.742 4.54881C154.701 6.19137 154.826 6.48631 154.994 6.73809C155.162 6.94911 155.458 7.16012 155.878 7.16012C156.3 7.16012 156.593 6.99227 156.761 6.78125C156.972 6.52947 157.1 6.23453 157.141 4.59197C157.184 2.94942 157.056 2.65447 156.888 2.4003Z" fill="#6162AC"/>
<path d="M163.412 10.6994C161.685 10.0256 160.718 8.29673 161.433 6.44315L163.539 1.01192L165.599 1.81042L163.496 7.20328C163.2 7.96102 163.455 8.59167 164.127 8.84584C164.799 9.09762 165.431 8.84584 165.726 8.04495L167.829 2.65448L169.891 3.45298L167.788 8.88661C167.03 10.7402 165.138 11.3732 163.412 10.6994Z" fill="#6162AC"/>
<path d="M172.585 12.4667L171.577 11.5818L169.514 14.0253L167.829 12.5938L173.637 5.72858L176.331 8.04494C177.845 9.3494 177.761 11.119 176.794 12.2556C175.826 13.3946 174.1 13.7735 172.585 12.4667ZM174.943 9.51965L173.975 8.71875L172.796 10.1095L173.764 10.908C174.227 11.2869 174.775 11.203 175.068 10.8241C175.406 10.4452 175.406 9.89852 174.943 9.51965Z" fill="#6162AC"/>
<path d="M39.1795 41.3182C39.1795 42.0783 38.9274 42.7089 37.4125 43.3827C36.3177 43.8887 34.5075 44.5625 31.4776 44.5625C24.7456 44.5625 23.5236 41.6994 23.5236 38.5822C23.5236 33.4435 28.4909 32.7265 34.8868 33.4842V31.8417C34.8868 30.578 33.9192 28.9786 31.6048 28.9786C29.4993 28.9786 28.4069 29.8634 27.8163 30.6619C27.2689 31.422 26.976 31.506 26.1333 31.1271C25.6291 30.9161 25.1225 30.7482 24.6183 30.494C23.9869 30.1583 23.8189 29.6932 24.155 29.0193C24.8704 27.631 26.7647 25.2307 31.3936 25.2307C37.2012 25.2307 39.2227 27.6717 39.2227 32.8943C39.1795 35.1699 39.1795 40.2247 39.1795 41.3182ZM34.93 36.8125C28.7838 36.0116 27.9003 37.0643 27.9003 38.8771C27.9003 41.6563 31.4776 41.4452 34.93 40.8985V36.8125Z" fill="#6162AC"/>
<path d="M148.471 41.3182C148.471 42.5818 147.799 44.5625 140.772 44.5625C134.037 44.5625 132.818 41.6994 132.818 38.5822C132.818 33.4435 137.782 32.7265 144.178 33.4842V31.8417C144.178 30.578 143.211 28.9786 140.896 28.9786C138.793 28.9786 137.698 29.8634 137.108 30.6619C136.563 31.422 136.268 31.506 135.425 31.1271C134.921 30.9161 134.416 30.7482 133.91 30.494C133.278 30.1583 133.11 29.6932 133.447 29.0193C134.162 27.631 136.056 25.2307 140.685 25.2307C146.493 25.2307 148.514 27.6717 148.514 32.8943C148.471 35.1699 148.471 40.2247 148.471 41.3182ZM144.222 36.8125C138.078 36.0548 137.194 37.0643 137.194 38.8771C137.194 41.6563 140.772 41.4452 144.222 40.8985V36.8125Z" fill="#6162AC"/>
<path d="M58.4535 40.9824C58.4535 42.1191 57.9493 42.7929 56.6865 43.3827C55.0875 44.0997 52.9412 44.5625 50.3747 44.6057C42.7135 44.6057 42.6727 38.9179 42.6727 37.1914C42.6727 34.453 42.6727 28.8107 42.6727 26.6622C42.6727 26.1994 43.0521 25.8182 43.5154 25.8182H46.0819C46.5453 25.8182 46.9222 26.1994 46.9222 26.6622C46.9222 28.8515 46.9222 34.664 46.9222 37.4432C46.9222 38.4982 47.3016 40.7307 50.4155 40.7307C52.8571 40.7307 54.204 40.1816 54.204 40.1816V26.6191C54.204 26.1563 54.5834 25.7774 55.0443 25.7774H57.6132C58.0742 25.7774 58.4535 26.1563 58.4535 26.6191C58.4535 28.0098 58.4535 38.6229 58.4535 40.9824Z" fill="#6162AC"/>
<path d="M100.538 28.8515C100.538 27.7149 101.042 27.0411 102.305 26.4512C103.904 25.7342 106.05 25.2714 108.619 25.2307C116.278 25.2307 116.319 30.9161 116.319 32.6426C116.319 35.381 116.319 41.0256 116.319 43.1717C116.319 43.6369 115.942 44.0158 115.479 44.0158H112.91C112.449 44.0158 112.069 43.6369 112.069 43.1717C112.069 40.9824 112.069 35.1699 112.069 32.3908C112.069 31.3381 111.69 29.1057 108.576 29.1057C106.134 29.1057 104.788 29.6524 104.788 29.6524V43.1717C104.788 43.6369 104.411 44.0158 103.947 44.0158H101.381C100.917 44.0158 100.538 43.6369 100.538 43.1717C100.538 41.8241 100.538 31.1679 100.538 28.8515Z" fill="#6162AC"/>
<path d="M77.6435 15.6271C77.6435 15.1619 77.3074 14.783 76.8032 14.783H74.2367C73.7734 14.783 73.394 15.1619 73.394 15.6271V25.6503C72.1312 25.4393 70.489 25.2307 69.1853 25.2307C63.1256 25.2307 61.9468 29.4414 61.9468 31.9688C61.9468 33.1054 61.8627 36.4336 61.8627 37.1506C61.8627 38.9179 61.9059 44.6057 69.5647 44.5625C72.1312 44.5625 74.2775 44.0997 75.8765 43.342C77.1393 42.7521 77.6435 42.119 77.6435 40.9393C77.6435 38.6229 77.6435 17.0155 77.6435 15.6271ZM69.6487 40.6875C66.5348 40.6875 66.1555 38.4551 66.1555 37.4024C66.1555 36.7286 66.1555 34.5369 66.1555 32.4747C66.1555 31 66.9982 29.2304 69.7735 29.2304C71.7951 29.2304 72.9307 29.5253 73.4348 29.6524V40.1815C73.394 40.1408 72.0471 40.6875 69.6487 40.6875Z" fill="#6162AC"/>
<path d="M126.083 36.8557C126.083 40.2247 127.43 40.5604 130.501 40.5604C130.923 40.5604 131.175 40.9824 131.175 41.3181C131.175 42.119 131.175 42.9199 131.175 43.7208C131.175 44.0997 130.88 44.4786 130.46 44.4786C125.408 44.4786 121.834 43.5506 121.834 37.1914C121.834 34.5801 121.834 29.5685 121.834 29.5685H119.14C118.76 29.5685 118.424 29.2304 118.424 28.8515V26.3673C118.424 25.9884 118.76 25.6503 119.14 25.6503H121.834V22.1542C121.834 21.6914 122.211 21.3125 122.674 21.3125H125.24C125.704 21.3125 126.083 21.6914 126.083 22.1542V25.6503H130.46C130.839 25.6503 131.175 25.9884 131.175 26.3673V28.8515C131.175 29.2304 130.839 29.5685 130.46 29.5685H126.083C126.04 29.6092 126.04 35.8006 126.083 36.8557Z" fill="#6162AC"/>
<path d="M80.9687 32.5155C80.9687 29.3143 82.7357 25.2307 89.1748 25.2307C95.6139 25.2307 97.465 29.3574 97.465 32.5155C97.465 34.158 97.4242 33.6952 97.4242 35.0021C97.4242 35.7167 96.7927 36.2226 95.95 36.2226C94.267 36.2226 85.2206 36.2226 85.2206 36.2226C85.2206 36.2226 85.2206 36.8557 85.2206 37.6542C85.2206 39.2128 86.6923 40.8554 89.1748 40.8554C91.7846 40.8554 92.7521 39.7619 93.2155 39.2967C94.099 38.3711 94.1422 38.0762 95.2778 38.6229C95.6139 38.8339 96.2453 39.1289 96.5815 39.3399C97.1721 39.6756 97.3401 40.2247 97.004 40.8146C96.2453 42.203 94.183 44.5193 89.1748 44.5193C83.1583 44.5193 80.9687 40.5604 80.9687 37.2753C80.9687 35.2131 80.9687 35.8438 80.9687 32.5155ZM93.1314 33.0646C93.1314 33.0646 93.1314 32.8104 93.1314 32.4315C93.1314 31.211 92.7953 28.8515 89.3429 28.8515C85.3887 28.8515 85.1774 31.0839 85.1774 32.4315C85.1774 32.8536 85.1774 33.0646 85.1774 33.0646H93.1314Z" fill="#6162AC"/>
</svg>
