<svg width="60" height="60" viewBox="0 0 60 60" fill="none" xmlns="http://www.w3.org/2000/svg">
<circle cx="30" cy="30" r="30" fill="#743FDD"/>
<path d="M34.0954 48.594C33.8809 48.566 33.5906 48.6264 33.3373 48.7526C32.6719 49.0834 31.9173 49.4592 31.0275 49.5665L30.6741 49.6089V39.3717H30.9896C31.1483 39.3717 31.3043 39.3735 31.4584 39.3744C31.7983 39.378 32.1202 39.3807 32.442 39.3672C32.6845 39.3573 32.8802 39.278 33.0064 39.1383C33.1155 39.0175 33.1678 38.8552 33.1569 38.6678C33.1353 38.2901 32.8648 38.0666 32.4159 38.054C32.0913 38.045 31.7578 38.0468 31.435 38.0495C31.288 38.0504 31.1411 38.0513 30.9941 38.0513H30.6786V30.6515H31.5125C31.6847 30.6515 31.8569 30.6524 32.0291 30.6542C32.4078 30.6578 32.799 30.6614 33.1795 30.6433C33.422 30.6325 33.6221 30.5451 33.7429 30.3982C33.8556 30.2603 33.898 30.0764 33.8656 29.8664C33.8142 29.5338 33.5419 29.3391 33.1182 29.3328C32.6286 29.3247 32.1301 29.3265 31.6469 29.3283C31.4332 29.3283 31.2195 29.3301 31.0059 29.3301H30.6903V21.9781L30.9779 21.9519C31.0104 21.9492 31.0383 21.9456 31.0636 21.9429C31.1177 21.9366 31.1699 21.9312 31.2258 21.9312C31.9317 21.9312 32.6377 21.9312 33.3427 21.9312C35.3288 21.9312 37.3816 21.9312 39.401 21.924H39.4064C39.9437 21.924 40.0862 22.2539 40.1511 22.5423C40.6686 24.8668 40.9399 27.2355 40.9553 29.5834C40.9616 30.4919 41.1202 30.6515 42.0182 30.6515C43.6193 30.6515 45.2204 30.6515 46.8216 30.6515H49.7408L49.5677 31.9025C49.4766 32.5668 49.3883 33.2013 49.2999 33.8358C49.2657 34.0801 49.2485 34.6569 49.821 34.7533C50.27 34.8282 50.5107 34.4541 50.5864 34.0774C51.1075 31.5122 51.1364 28.911 50.6721 26.3477C49.794 21.4959 47.4986 17.4237 43.8501 14.243C39.8491 10.7585 35.2431 9 30.1287 9C29.3065 9 28.4716 9.04507 27.6242 9.1361C23.0408 9.62732 19.0415 11.4651 15.7374 14.5972C10.6401 19.4309 8.41689 25.4058 9.13 32.3558C9.59249 36.8651 11.4289 40.8643 14.5879 44.2433C18.5502 48.4813 23.5366 50.7499 29.4092 50.9861C30.9428 51.0474 32.5268 50.9068 34.2514 50.5552C34.6535 50.4732 34.8545 50.3002 34.9231 49.9766C34.9528 49.8378 34.8374 49.4259 34.5453 49.0113C34.3398 48.7211 34.164 48.6021 34.0954 48.5931V48.594ZM48.4633 23.1967L48.4705 23.2165C49.1394 25.0389 49.5199 26.9191 49.6326 28.9615L49.6506 29.2941H42.3995L41.5097 21.9303H46.6503C47.9106 21.9303 48.0287 22.0132 48.4633 23.1958V23.1967ZM36.9046 11.6571C39.4118 11.7562 45.4386 16.8415 46.9812 20.1601L47.1894 20.609H45.6676C45.3223 20.609 44.9815 20.6099 44.6435 20.6099C43.5715 20.6099 42.5321 20.6072 41.4745 20.5927C41.1536 20.5882 40.8985 20.2115 40.8336 20.0105C40.1295 17.8293 39.3758 16.1511 38.4625 14.727C38.0685 14.1132 37.6295 13.5156 37.204 12.9379C37.0155 12.681 36.8199 12.416 36.6342 12.1555L36.2591 11.6309L36.9028 11.6562L36.9046 11.6571ZM30.675 10.2177L31.0933 10.361C31.2727 10.4223 31.4521 10.4791 31.627 10.534C32.0192 10.6584 32.3897 10.7747 32.7531 10.9405C34.0612 11.5372 35.2034 12.4935 36.3475 13.9482C37.6286 15.5778 39.0846 18.499 39.4623 20.1998L39.548 20.5837H30.6759V10.2177H30.675ZM12.9534 20.1304C15.4246 16.0384 18.7314 13.2704 23.0642 11.6679L24.183 11.2542L23.4149 12.1672C23.3455 12.2502 23.2743 12.3331 23.2039 12.416C23.057 12.5881 22.9055 12.7657 22.7631 12.9433C21.2197 14.8568 20.054 17.129 19.1993 19.8906C19.0397 20.408 18.7621 20.6216 18.2464 20.6216C18.2338 20.6216 18.2211 20.6216 18.2076 20.6216C17.1357 20.6 16.0439 20.6036 14.9882 20.6072C14.5807 20.609 14.1741 20.6099 13.7666 20.6099H12.6631L12.9525 20.1313L12.9534 20.1304ZM29.2857 29.2995H18.8856L18.9306 28.9444C18.9947 28.4459 19.0569 27.9511 19.1191 27.4599C19.2913 26.098 19.4535 24.8118 19.6338 23.4995C19.642 23.4382 19.6501 23.3733 19.6582 23.3075C19.7114 22.8632 19.7718 22.3602 20.0963 22.0844C20.3758 21.8456 20.7842 21.8798 21.1791 21.9123C21.3053 21.9231 21.4243 21.9348 21.5298 21.9321C23.2301 21.9294 24.9304 21.9303 26.6298 21.9303H29.2866V29.2986L29.2857 29.2995ZM29.2857 30.674V38.0107L28.9873 38.0269C28.9422 38.0296 28.8981 38.0323 28.853 38.0359C28.7493 38.0432 28.6429 38.0504 28.532 38.0504C27.8099 38.0504 27.0878 38.0504 26.3656 38.0504C24.5004 38.0495 22.572 38.0486 20.6769 38.0612C20.6733 38.0612 20.6688 38.0612 20.6652 38.0612C20.1649 38.0612 19.9061 37.8512 19.8015 37.36C19.3553 35.2788 19.1055 33.1986 19.0379 30.9985L19.028 30.6731H29.2866L29.2857 30.674ZM10.3471 28.9696C10.4336 27.0985 10.7699 25.3373 11.3748 23.5833C11.4127 23.4734 11.4461 23.3526 11.4821 23.2237C11.6038 22.7866 11.7291 22.335 12.0753 22.0898C12.4134 21.851 12.8669 21.8834 13.305 21.9141C13.4484 21.924 13.5845 21.9339 13.7089 21.933C14.651 21.9276 15.6085 21.9285 16.5343 21.9294C16.9085 21.9294 17.2826 21.9294 17.6577 21.9294H18.4663L17.5928 29.2977H10.3318L10.3471 28.9678V28.9696ZM12.5613 38.0585C12.0771 38.0585 11.8941 37.7674 11.7895 37.5123C10.9728 35.5303 10.4877 33.396 10.348 31.1688C10.3435 31.0949 10.3579 31.0354 10.3687 30.9876C10.3723 30.9741 10.3759 30.9588 10.3786 30.9417L10.4264 30.683H17.5928L18.4528 37.9629L18.1697 38.0125C18.1012 38.0305 18.0165 38.0495 17.9218 38.0495C17.3511 38.0495 16.7814 38.0495 16.2107 38.0495C15.0171 38.0495 13.7838 38.0495 12.5703 38.0585H12.5613ZM23.0669 48.3155C18.7359 46.7156 15.4336 43.9576 12.9733 39.8845L12.7055 39.442L13.2221 39.4068C13.2879 39.4023 13.3465 39.3978 13.4006 39.3933C13.5142 39.3843 13.6125 39.3762 13.7161 39.3753C14.1723 39.3753 14.6294 39.3753 15.0856 39.3762C16.1232 39.378 17.1961 39.3798 18.25 39.3645C18.7584 39.3564 19.0379 39.5601 19.1867 40.0441C20.0386 42.8201 21.2079 45.1068 22.7613 47.0347C22.9055 47.2141 23.0588 47.3934 23.2075 47.5674C23.2779 47.6503 23.3482 47.7323 23.4185 47.8152L24.1875 48.7283L23.0678 48.3146L23.0669 48.3155ZM29.2875 49.717L28.8818 49.5971C28.7493 49.5575 28.6177 49.5223 28.4888 49.4863C28.2093 49.4097 27.9208 49.3313 27.644 49.2231C26.0609 48.6057 24.7194 47.5079 23.423 45.7665C22.2483 44.1892 21.3035 42.2974 20.5363 39.9828C20.5119 39.9089 20.5119 39.8449 20.5119 39.789C20.5119 39.7701 20.5119 39.7485 20.511 39.7214L20.4948 39.3906H29.2884V49.7179L29.2875 49.717ZM29.2974 20.5873H20.3289L20.4786 20.1664C20.5336 20.0114 20.5868 19.8591 20.6382 19.7104C20.7509 19.3859 20.8572 19.0794 20.9762 18.7712C21.912 16.3584 23.0056 14.5314 24.4183 13.0235C25.6796 11.6769 27.0229 10.8459 28.5248 10.4818C28.6132 10.4601 28.6997 10.4466 28.7908 10.4313C28.8332 10.4241 28.8782 10.4169 28.926 10.4088L29.2974 10.3421V20.5873Z" fill="white"/>
<path d="M49.9192 38.091C46.1839 36.333 42.228 34.4652 37.4714 32.2128C36.8015 31.8958 36.2132 31.9327 35.6714 32.3254C35.1379 32.7117 34.9311 33.2431 35.0199 33.9978C35.1196 34.8506 35.2056 35.7188 35.2889 36.5582L35.3484 37.1607C35.4674 38.3513 35.5854 39.5427 35.7035 40.7333C35.9249 42.9632 36.1537 45.2696 36.3834 47.5373C36.4639 48.3281 36.9516 48.8702 37.7212 49.0251C38.3261 49.1467 38.8495 48.9594 39.3217 48.4523C39.7106 48.0354 40.0986 47.6175 40.4902 47.1951L41.2415 46.3864L41.4767 46.6566C41.4987 46.6818 41.5151 46.6998 41.5279 46.7142C41.5609 46.7511 41.5792 46.7727 41.5947 46.7952C41.84 47.1384 42.0843 47.4815 42.3296 47.8246C42.8081 48.4956 43.2867 49.1656 43.7671 49.8348C44.404 50.7209 45.245 51.0956 46.3367 50.9794C47.303 50.8767 49.5761 49.2584 49.9659 48.3947C50.3832 47.4716 50.2898 46.6034 49.6804 45.7415C49.1744 45.0247 48.6647 44.3105 48.1467 43.5837C47.9134 43.2559 47.6773 42.9254 47.4394 42.5904L47.2115 42.2697L47.5785 42.1184C47.8173 42.0203 48.0525 41.9221 48.284 41.8258C48.8129 41.606 49.3116 41.398 49.825 41.198C50.5918 40.899 50.9762 40.4028 50.999 39.6796C51.021 38.9646 50.6678 38.4458 49.9183 38.0928L49.9192 38.091ZM48.4771 40.3326C47.723 40.6406 46.9956 40.9369 46.2672 41.2314C45.8398 41.4043 45.5937 41.5889 45.5369 41.7798C45.4793 41.9735 45.5872 42.2652 45.859 42.6462L46.495 43.5396C47.1648 44.4798 47.8338 45.4191 48.5018 46.3603C49.1304 47.2455 49.0151 47.8895 48.1165 48.5145C47.6938 48.8081 47.2801 49.0945 46.8665 49.3736C46.5417 49.5925 46.2305 49.7015 45.9386 49.7015C45.5168 49.7015 45.1352 49.4736 44.8103 49.0197C44.2659 48.2596 43.7241 47.4977 43.1824 46.7358C42.8091 46.2099 42.4348 45.6839 42.0596 45.158C41.8263 44.831 41.603 44.6581 41.3962 44.6455C41.1921 44.6311 40.9505 44.7716 40.6806 45.0607C40.1425 45.6362 39.6054 46.2126 39.0417 46.8196L37.7834 48.1705L36.2708 33.0945L50.1489 39.6517L48.4771 40.3335V40.3326Z" fill="white"/>
</svg>
