<svg width="50" height="52" viewBox="0 0 50 52" fill="none" xmlns="http://www.w3.org/2000/svg">
<path d="M45.5313 15.9475C47.1599 15.9475 48.1332 16.9321 48.1341 18.5785C48.136 21.6407 48.136 24.7029 48.1341 27.7651C48.1341 28.3026 48.0278 28.7742 47.8178 29.1677C48.5474 29.5838 49.2967 29.7993 49.4624 29.6318C49.629 29.4633 49.6506 29.1941 49.6723 28.9343C49.6826 28.8072 49.6921 28.6876 49.7184 28.5784V17.8001C49.6789 17.6805 49.6422 17.5619 49.6064 17.4461C49.5123 17.1421 49.4247 16.854 49.2995 16.6102C48.5587 15.1596 47.4357 14.4131 45.9615 14.3924C43.0321 14.3519 40.0489 14.3557 37.1647 14.3594H36.9934C35.8251 14.3613 34.6579 14.3632 33.4897 14.3613H32.121L32.088 13.6892C32.0852 13.6214 32.0805 13.5584 32.0777 13.4981C32.0692 13.3588 32.0617 13.2298 32.0617 13.0915C32.0617 12.1285 32.0617 11.1655 32.0617 10.2025V10.0585C32.0617 8.63985 32.0617 7.22125 32.0598 5.80359C32.056 3.19983 30.3672 1.51671 27.7569 1.51671C19.9353 1.51577 12.1137 1.51483 4.29299 1.51671C1.68736 1.51671 0.0032947 3.20642 0.00141201 5.82053C-0.000470671 9.38163 -0.000470671 12.9427 0.00141201 16.5038C0.00141201 17.7775 0.404307 18.8534 1.16585 19.6168C1.92457 20.3775 2.99206 20.7794 4.2544 20.7794C6.63694 20.7766 9.01194 20.7728 11.3869 20.7691L15.0911 20.7643H16.0221V25.5803L15.3472 25.6094C15.2898 25.6123 15.2333 25.6151 15.1759 25.6179C15.0347 25.6254 14.8925 25.6339 14.7419 25.6339C13.9681 25.6339 13.1943 25.6339 12.4205 25.6339H12.2803C11.9301 25.6339 11.5809 25.6339 11.2307 25.6339C10.5209 25.6339 9.81114 25.6339 9.10137 25.6358C6.49009 25.6424 4.80508 27.3312 4.81073 29.9387C4.81073 30.207 4.80885 30.4752 4.80697 30.7445C4.79944 31.6425 4.7919 32.5697 4.89263 33.4471C5.10914 35.3363 6.71036 36.7888 8.61658 36.8246C11.4415 36.8782 14.2712 36.8782 17.0256 36.8246C19.0128 36.786 20.5754 35.2798 20.8258 33.1618C20.8361 33.0733 20.8437 32.9849 20.8531 32.8841C20.8587 32.8182 20.8644 32.7561 20.871 32.6883L20.9303 32.0482H21.0583C21.0583 32.0482 26.52 32.0303 30.3004 32.02C30.3108 31.6952 30.3239 31.3686 30.3381 31.0504C30.3475 30.8358 30.3559 30.6211 30.3644 30.4056C28.3085 30.4103 25.9646 30.4169 25.2595 30.4197C23.5962 30.4263 21.9338 30.4329 20.2704 30.4385H20.2563C19.4505 30.4385 18.8066 30.2051 18.3425 29.7438C17.8775 29.2807 17.6412 28.6368 17.6403 27.8282C17.6356 24.7519 17.6356 21.6276 17.6403 18.5409C17.6431 16.9171 18.608 15.9475 20.2215 15.9466C28.4911 15.9428 37.0075 15.9428 45.5323 15.9466L45.5313 15.9475ZM18.5252 31.7169C19.0307 31.9305 19.2867 32.3316 19.265 32.8766C19.2104 34.2444 18.1656 35.246 16.7799 35.2591C16.3168 35.2638 15.815 35.2657 15.2022 35.2657C14.804 35.2657 14.4087 35.2657 14.018 35.2638C13.6226 35.2638 13.2273 35.262 12.8329 35.262H11.6769C10.7958 35.2638 9.88551 35.2648 8.98935 35.262C7.3966 35.2563 6.4016 34.2613 6.39219 32.6667C6.3856 31.5333 6.3856 30.6108 6.39219 29.7636C6.40537 28.2339 7.38154 27.238 8.8811 27.2257C9.95517 27.2172 11.0452 27.2182 12.1005 27.2191H12.1645C13.0682 27.2191 14.002 27.221 14.9189 27.2154H14.9292C15.6032 27.2154 16.0108 27.59 16.0767 28.2697C16.2415 29.9641 17.0425 31.0918 18.5252 31.7178V31.7169ZM30.4774 10.9819V14.3613H29.0993C28.3452 14.3613 27.5931 14.3613 26.84 14.3594H26.3119C24.2984 14.3566 22.2162 14.3538 20.1697 14.366C18.0799 14.3783 16.4853 15.6726 16.1087 17.6626C16.0786 17.8208 16.0645 18.0015 16.0485 18.1926C16.04 18.2999 16.0315 18.4082 16.0193 18.5192L15.9581 19.1208L15.3547 19.1528C15.2992 19.1556 15.2465 19.1594 15.1947 19.1631C15.0732 19.1716 14.948 19.1791 14.8163 19.1801C11.29 19.1867 7.76372 19.1923 4.23651 19.1961C3.40437 19.1961 2.75013 18.9636 2.28699 18.5061C1.82009 18.0448 1.58381 17.3925 1.58287 16.566C1.58098 12.9559 1.58098 9.34586 1.58287 5.73675C1.58287 4.08658 2.57693 3.10099 4.24028 3.10099C12.108 3.10005 19.9758 3.10005 27.8444 3.10099C29.488 3.10099 30.4698 4.07528 30.4736 5.70663C30.4764 7.46506 30.4764 9.22442 30.4755 10.9829L30.4774 10.9819Z" fill="#743FDD"/>
<path d="M45.6754 0.0112961C44.8884 0.00564806 44.0393 0 43.162 0C42.2846 0 41.5222 0.00564806 40.8058 0.0169442C39.0135 0.0451844 37.4734 1.2934 37.1449 2.985C36.9661 3.90657 36.9952 4.93169 37.0357 5.82032C37.127 7.77455 38.7386 9.34659 40.7051 9.39836C42.6461 9.4492 44.3434 9.4492 45.8938 9.39554C47.4413 9.34282 48.5851 8.55963 49.2939 7.06854C49.3908 6.86427 49.4624 6.62046 49.5386 6.36159C49.5659 6.26652 49.5942 6.1705 49.6252 6.07354V3.43967C49.6017 3.37471 49.5735 3.28717 49.5518 3.19021C49.1367 1.27458 47.6155 0.0263576 45.6754 0.0112961ZM48.2255 5.54262C48.1897 6.93769 47.1608 7.97694 45.7789 8.01365C45.2009 8.02871 44.6201 8.02495 44.0591 8.02118L43.6872 8.0193L43.3164 8.02118C43.0754 8.02118 42.8353 8.02118 42.5962 8.02306H42.5718C42.3411 8.02306 42.1077 8.02495 41.8733 8.02495C41.5231 8.02495 41.2332 8.02306 40.9611 8.0193C39.4512 7.99671 38.4458 7.00924 38.4016 5.50403C38.3875 5.03524 38.3762 4.41772 38.4101 3.79173C38.4854 2.4249 39.5246 1.42331 40.882 1.41013C42.4852 1.39413 44.1174 1.39413 45.7328 1.41013C47.1439 1.42425 48.1925 2.47573 48.2255 3.9094C48.2386 4.48644 48.2386 5.02018 48.2255 5.54262Z" fill="#743FDD"/>
<path d="M49.9764 35.1356C49.9726 34.761 49.9688 34.3863 49.9651 34.0126C49.9585 33.2689 49.6271 32.5704 49.0576 32.096C48.474 31.6103 47.7039 31.4069 46.9462 31.5397C46.6911 31.5839 46.4454 31.679 46.2082 31.7712C46.1432 31.7967 46.0764 31.8221 46.0095 31.8466C45.7092 31.0605 45.1651 30.5287 44.3923 30.2651C43.6242 30.0025 42.8598 30.1041 42.1171 30.5654C41.7716 29.8613 41.2652 29.4057 40.5742 29.175C39.8983 28.9491 39.2281 29.0028 38.5315 29.3398V28.9792C38.5315 28.5622 38.5334 28.1621 38.5315 27.763C38.5296 27.4467 38.5315 27.1304 38.5334 26.8141C38.5381 26.0611 38.5428 25.2816 38.4948 24.5163C38.4543 23.8621 38.1164 23.2361 37.5685 22.7993C36.9952 22.3418 36.2713 22.1432 35.5842 22.2552C34.2249 22.4774 33.3456 23.5194 33.3447 24.9117C33.3428 27.8073 33.3428 30.7028 33.3428 33.5984V37.5323C33.3428 37.569 33.3456 37.6066 33.3485 37.6443C33.3532 37.7017 33.3588 37.7742 33.3438 37.8034C33.2186 38.0491 33.1433 38.0688 33.1404 38.0688C33.0454 38.0895 32.8543 37.9813 32.7827 37.9408C32.7658 37.9295 32.7375 37.8693 32.7206 37.8326C32.7046 37.7987 32.6895 37.7657 32.6716 37.7356C32.5022 37.4447 32.3356 37.1529 32.1699 36.8601C31.8084 36.2238 31.4338 35.5667 31.0337 34.9379C30.0302 33.3631 27.9395 32.8246 26.2752 33.7123C25.8403 33.9439 25.5494 34.2762 25.4365 34.6734C25.3245 35.065 25.3922 35.4933 25.6332 35.9113C26.1303 36.7726 26.6263 37.6349 27.1224 38.4971C28.6399 41.1348 30.2091 43.8628 31.7727 46.5334C33.1414 48.8717 35.1916 50.4051 37.8641 51.0914C38.2218 51.1836 38.5918 51.2429 38.9485 51.3013C39.1142 51.3286 39.2789 51.3549 39.4437 51.3851L40.9611 51.3869L40.9724 51.3851C41.0204 51.3775 41.0684 51.3691 41.1174 51.3606C41.2162 51.3436 41.3188 51.3258 41.4186 51.3135C43.7042 51.0245 45.8269 49.9307 47.3952 48.2334C48.9701 46.5287 49.8775 44.3297 49.9509 42.0404C50.0244 39.7397 49.9999 37.3995 49.9764 35.1356ZM34.721 32.9715V31.278C34.721 30.5277 34.721 29.7765 34.721 29.0263C34.721 27.6275 34.7209 26.2286 34.7228 24.8298C34.7228 24.3036 34.9657 23.928 35.4411 23.7134C35.9014 23.5063 36.3363 23.5693 36.7335 23.9016C37.0272 24.1483 37.1637 24.4806 37.1628 24.9484C37.16 27.5418 37.1609 30.1361 37.1609 32.7295V34.6367C37.1609 34.6631 37.1609 34.6885 37.1609 34.7148C37.16 34.8052 37.1581 34.8984 37.1713 34.9944C37.2155 35.3361 37.5111 35.595 37.8453 35.5827C38.1954 35.5705 38.4355 35.3728 38.5042 35.0405C38.5296 34.9163 38.5296 34.792 38.5296 34.6725V34.6442C38.5296 34.3091 38.5296 33.973 38.5296 33.6379C38.5287 32.9771 38.5268 32.2937 38.5381 31.6225C38.5466 31.0822 38.8487 30.6548 39.3467 30.4797C39.8249 30.3122 40.3464 30.4524 40.6768 30.8384C40.8792 31.0747 40.9781 31.3721 40.9771 31.7468C40.9762 32.5347 40.9771 33.3226 40.9771 34.1105V34.7045C40.9771 34.7798 40.9771 34.8579 40.9828 34.937C41.0148 35.3182 41.3075 35.5903 41.6671 35.5856C42.0408 35.5799 42.3261 35.2909 42.3326 34.9135C42.3383 34.5774 42.3374 34.2366 42.3364 33.9062C42.3355 33.5287 42.3345 33.1381 42.343 32.755C42.3524 32.3172 42.5539 31.9332 42.8956 31.7025C43.2185 31.4841 43.6176 31.439 43.9922 31.5792C44.4864 31.7637 44.7745 32.1986 44.7811 32.771C44.7877 33.2557 44.7858 33.749 44.7848 34.2263C44.7848 34.4607 44.7839 34.6941 44.7848 34.9285V34.9728C44.7848 35.0537 44.7848 35.1375 44.7943 35.2222C44.8423 35.6138 45.1162 35.8595 45.4927 35.851C45.8683 35.8416 46.1394 35.5649 46.1526 35.1789C46.1601 34.9671 46.1583 34.7534 46.1573 34.5473C46.1573 34.4174 46.1554 34.2875 46.1573 34.1576C46.1649 33.4092 46.6788 32.8679 47.382 32.8679H47.3905C48.0871 32.8726 48.5935 33.4111 48.5945 34.1481C48.5945 34.8024 48.5973 35.4575 48.5992 36.1118C48.6048 37.9653 48.6114 39.8828 48.5869 41.7674C48.5342 45.8575 45.5436 49.2868 41.476 49.9222C38.1305 50.4447 34.7388 48.8557 33.0359 45.9667C31.5505 43.4458 30.066 40.8665 28.6314 38.3719C28.0365 37.3383 27.4415 36.3038 26.8447 35.2712C26.7817 35.1629 26.7563 35.0876 26.7675 35.049C26.7788 35.0104 26.8419 34.9615 26.9539 34.904C27.2749 34.7393 27.6195 34.6612 27.9621 34.6612C28.7481 34.6612 29.5229 35.0735 29.9625 35.8011C30.2637 36.3 30.5583 36.814 30.8436 37.312C31.0958 37.7516 31.3566 38.2072 31.6211 38.6506C31.8875 39.0977 32.3243 39.3961 32.8194 39.4686C33.3061 39.5401 33.7984 39.3867 34.1703 39.0459C34.543 38.7061 34.7228 38.2543 34.7228 37.6641C34.7209 36.0995 34.721 34.535 34.721 32.9705V32.9715Z" fill="#743FDD"/>
</svg>
