<svg width="50" height="50" viewBox="0 0 50 50" fill="none" xmlns="http://www.w3.org/2000/svg">
<path d="M49.8242 48.6824C47.5015 43.0506 45.172 37.4208 42.857 31.7852C42.6482 31.2775 42.33 31.0628 41.7817 31.0667C39.6824 31.0831 37.5831 31.0735 35.4837 31.0735H34.9248C35.5408 30.1432 36.119 29.3184 36.648 28.4645C38.6903 25.1719 40.252 21.6908 40.6562 17.787C41.1493 13.0217 39.9067 8.75823 36.6412 5.22968C32.4193 0.667416 27.1763 -0.933921 21.1316 0.520433C16.6023 1.61023 13.2545 4.37873 11.073 8.47297C8.97464 12.4106 8.76867 16.5734 9.92132 20.8369C10.8274 24.1895 12.4365 27.2026 14.3937 30.0456C14.6112 30.3618 14.8298 30.676 15.087 31.0464C14.8849 31.059 14.7611 31.0725 14.6373 31.0725C12.5216 31.0735 10.4058 31.0725 8.29001 31.0744C7.5493 31.0744 7.41682 31.1663 7.12866 31.8645C6.58811 33.1709 6.04853 34.4763 5.50895 35.7827C4.60191 37.9797 2.22408 43.7236 0.98633 46.7261C0.657554 47.493 0.328777 48.2598 0 49.0257V50.0023C16.4746 50.0023 32.9492 50.0023 49.4239 50.0023C50.0582 49.6436 50.1307 49.4202 49.8261 48.6804L49.8242 48.6824ZM41.1329 32.5385C41.4539 32.5365 41.6202 32.6178 41.746 32.934C42.2652 34.2462 42.8174 35.5448 43.3937 36.9344C43.1317 36.9344 42.9305 36.9344 42.7304 36.9344C42.0032 36.9344 38.6042 36.9344 36.385 36.9402C36.3376 36.9383 36.2902 36.9373 36.2438 36.9373C34.3388 36.9315 32.4348 36.9344 30.5298 36.9344C30.3538 36.9344 30.1769 36.9344 29.9003 36.9344C30.0589 36.7497 30.1556 36.6317 30.2562 36.5186C31.3373 35.3031 32.4097 34.0789 33.5111 32.8808C33.6716 32.7057 33.9655 32.5626 34.1996 32.5607C36.5107 32.5375 38.8227 32.553 41.1339 32.5394L41.1329 32.5385ZM13.4247 25.6428C12.0526 23.0513 11.0401 20.3263 10.7732 17.3877C10.3961 13.2373 11.5285 9.52892 14.2834 6.37073C16.67 3.63608 19.6879 2.00766 23.2909 1.58799C27.4838 1.09966 31.2135 2.26488 34.4026 5.04595C36.7959 7.13368 38.3112 9.75713 38.9862 12.8583C39.5586 15.4933 39.341 18.0974 38.6003 20.6667C37.2378 25.3934 34.5815 29.3754 31.4262 33.0655C29.4768 35.3456 27.3397 37.4382 24.989 39.435C24.1477 38.6721 23.3248 37.9594 22.5386 37.209C18.955 33.7859 15.76 30.0504 13.4257 25.6438L13.4247 25.6428ZM7.30271 35.276C7.63052 34.4821 7.94576 33.6814 8.29775 32.8982C8.36544 32.7473 8.57624 32.5636 8.72419 32.5607C10.2501 32.5356 11.776 32.5452 13.4006 32.5452C12.7981 33.9996 12.2315 35.3756 11.6513 36.7449C11.6145 36.8329 11.4617 36.9238 11.3612 36.9247C9.80335 36.9363 8.24553 36.9325 6.61905 36.9325C6.86177 36.3455 7.08224 35.8108 7.30271 35.276ZM6.5765 48.5247C5.01675 48.5393 3.45699 48.5344 1.84308 48.5344C1.91464 48.3439 1.96783 48.195 2.02585 48.048C2.15639 47.7192 2.2966 47.3934 2.42521 47.0636C3.07987 45.4671 4.14742 42.8698 4.28957 42.6048C4.36596 42.4617 4.57967 42.3109 4.73632 42.3041C5.46737 42.2722 6.20034 42.2896 6.93236 42.2896C7.72142 42.2896 8.51048 42.2896 9.29762 42.2896C9.29762 42.3786 9.30729 42.4134 9.29665 42.4404C8.49598 44.3947 7.69531 46.349 6.88207 48.2975C6.83856 48.401 6.68094 48.5219 6.57554 48.5228L6.5765 48.5247ZM12.7053 48.5131C14.2235 44.8366 15.73 41.1892 17.2608 37.4808C21.5852 41.1592 25.8564 44.7931 30.2281 48.5131H12.7072H12.7053ZM36.6605 48.5335C35.3164 48.5335 33.9733 48.5393 32.6292 48.5238C32.5054 48.5228 32.369 48.4058 32.2617 48.3139C27.4374 44.2139 22.616 40.11 17.7946 36.0071C17.7201 35.9442 17.6485 35.8775 17.5712 35.8175C16.9939 35.364 16.5123 35.4771 16.2232 36.1627C15.6614 37.4953 15.115 38.8345 14.5638 40.1719C13.4798 42.8011 12.3871 45.4265 11.3215 48.0625C11.1668 48.4455 10.9676 48.5625 10.5731 48.5451C9.86427 48.5131 9.15257 48.5364 8.37801 48.5364C8.84023 47.4137 9.27731 46.35 9.71632 45.2873C10.1505 44.2361 10.5905 43.187 11.0218 42.1339C11.3766 41.2675 11.0769 40.8246 10.1389 40.8236C8.60912 40.8217 7.07837 40.8236 5.54859 40.8236H5.00901C5.33295 40.0394 5.61435 39.3151 5.94216 38.6121C5.99631 38.4951 6.25353 38.4178 6.41792 38.4158C8.19234 38.4023 9.96677 38.4081 11.7412 38.4071C12.4809 38.4071 12.5951 38.3298 12.8745 37.6548C13.5272 36.0786 14.1867 34.5044 14.822 32.9214C14.94 32.6274 15.0986 32.5626 15.3945 32.5346C15.9844 32.4785 16.3673 32.6777 16.7512 33.1496C19.0062 35.922 21.5252 38.44 24.2763 40.7231C24.8923 41.2346 25.1176 41.2414 25.7162 40.7308C26.5081 40.0539 27.274 39.348 28.0746 38.6818C28.2545 38.5328 28.5272 38.4216 28.7583 38.4197C30.6439 38.4052 32.5296 38.4062 34.4152 38.4071C34.4635 38.412 34.5148 38.4149 34.568 38.4158C35.8705 38.4236 42.3136 38.4158 43.6151 38.4023C43.9033 38.3994 44.0513 38.4903 44.1547 38.763C44.4071 39.4292 44.6904 40.0829 44.996 40.8256H44.4303C39.7752 40.8256 35.1192 40.8256 30.4641 40.8256C30.3335 40.8256 30.204 40.8285 30.0734 40.8256C29.6943 40.8178 29.4081 40.9571 29.2708 41.3303C29.1364 41.693 29.2969 41.9637 29.557 42.1929C30.6826 43.1802 31.8111 44.1646 32.9386 45.15C34.0787 46.146 35.2178 47.1429 36.3588 48.138C36.4759 48.2405 36.6064 48.3275 36.7302 48.4213C36.7079 48.46 36.6857 48.4977 36.6635 48.5364L36.6605 48.5335ZM45.5801 48.5364C43.53 48.5364 41.4791 48.5422 39.429 48.5277C39.2231 48.5257 38.9697 48.458 38.8189 48.3275C36.5793 46.3896 34.3533 44.4373 32.1244 42.4869C32.0886 42.4559 32.0606 42.4153 31.9532 42.2915H32.4744C36.6896 42.2915 40.9037 42.2973 45.1188 42.2819C45.4863 42.2809 45.6603 42.3882 45.7957 42.7257C46.5093 44.505 47.2481 46.2736 47.9772 48.0461C48.0372 48.1921 48.0894 48.342 48.1619 48.5354C47.2655 48.5354 46.4223 48.5354 45.5801 48.5354V48.5364Z" fill="#743FDD"/>
<path d="M31.5568 14.3832C30.7551 10.9107 27.5138 8.67597 23.9939 9.18945C23.0917 9.32096 22.2514 9.642 21.4788 10.1245C21.4508 10.1419 21.4217 10.1584 21.3937 10.1758C20.4577 10.7531 19.3476 11.7123 18.7161 13.4713C18.4676 14.1095 18.3254 14.7593 18.28 15.4043C18.28 15.4082 18.279 15.412 18.2781 15.4159C18.0218 19.1243 20.9421 22.649 24.9812 22.6596C29.3095 22.6712 32.5325 18.6128 31.5568 14.3812V14.3832ZM20.3203 18.283C19.6638 17.0491 19.5642 15.7795 19.92 14.5079C20.3619 13.0004 21.2022 12.072 22.0252 11.5035C22.0281 11.5025 22.031 11.5006 22.0339 11.4996C22.1209 11.4561 22.2031 11.4019 22.2872 11.3536C24.6592 9.97271 27.3958 10.4601 29.1093 12.6165C30.4467 14.3 30.6662 16.1895 29.762 18.1138C28.8531 20.0468 27.2701 21.1414 25.0963 21.1811C22.9216 21.2198 21.325 20.1716 20.3203 18.283Z" fill="#743FDD"/>
</svg>
