<svg width="50" height="50" viewBox="0 0 50 50" fill="none" xmlns="http://www.w3.org/2000/svg">
<path d="M49.5192 13.318C48.0632 6.77315 42.4152 1.41345 35.7842 0.285399C35.3576 0.21284 34.9193 0.148021 34.4946 0.085136C34.304 0.0570798 34.1134 0.0290236 33.9228 0H31.4316C31.4171 0.00386982 31.4026 0.00773964 31.3881 0.0116095C31.3049 0.0328935 31.2227 0.0541775 31.1385 0.0715917C30.6944 0.165435 30.2417 0.246701 29.8044 0.325065C28.8901 0.489532 27.9459 0.658837 27.0723 0.944236C22.5494 2.42251 18.8151 5.82311 16.826 10.2724C14.8262 14.7469 14.7856 19.8309 16.7157 24.2212C17.4035 25.7865 18.282 27.2019 19.4013 28.5467L19.6838 28.8863L18.6845 29.8866C17.7847 30.7873 16.855 31.718 15.933 32.6206C15.6911 32.8577 15.2684 32.8915 14.9994 32.788C13.0306 32.0257 11.3395 32.3923 9.82934 33.9103L8.6326 35.1138C6.51678 37.2422 4.32839 39.4441 2.14581 41.5802C1.00325 42.6986 0.243799 43.6564 0 44.9547V46.1408C0.0203166 46.2182 0.0396657 46.2956 0.0590147 46.374C0.109322 46.5742 0.15576 46.7639 0.219612 46.9399C0.801053 48.5575 1.90105 49.5308 3.58055 49.9139C3.67826 49.9361 3.76824 49.9661 3.84757 49.9923C3.85627 49.9952 3.86401 49.9981 3.87272 50.001H5.04624C6.48969 49.7281 7.53938 48.7578 8.49135 47.7865C10.5472 45.6871 12.665 43.5809 14.7131 41.5435C15.1726 41.0868 15.6312 40.6302 16.0897 40.1736C17.6086 38.6614 17.9772 36.9694 17.2178 35.0035C17.1133 34.7326 17.1452 34.3088 17.3794 34.0689C18.282 33.1431 19.2127 32.2104 20.1115 31.3088L21.0857 30.3316L21.5346 30.6693C21.6081 30.7244 21.672 30.7718 21.7339 30.8212C25.6927 33.9577 30.2572 35.1902 35.3024 34.4849C42.1617 33.5262 48.008 28.1278 49.5201 21.3566C49.6595 20.7326 49.762 20.0815 49.8607 19.4526C49.9062 19.1643 49.9516 18.876 50 18.5887V16.083C49.9507 15.7966 49.9052 15.5083 49.8597 15.221C49.7601 14.5931 49.6566 13.943 49.5182 13.3199L49.5192 13.318ZM14.9491 38.4486C14.7043 38.7243 14.4412 38.9807 14.1868 39.2293C14.0842 39.3299 13.9817 39.4296 13.8801 39.5312C13.1816 40.2297 12.4831 40.9282 11.7836 41.6267C9.98994 43.4194 8.13533 45.272 6.31651 47.0996C5.95081 47.4662 5.35486 47.9577 4.40579 47.9829H4.3758C3.47123 47.95 2.73983 47.5001 2.31609 46.7174C1.86138 45.8757 1.91072 45.0031 2.46121 44.1943C2.58794 44.0076 2.7437 43.8518 2.88011 43.7154C3.80307 42.7915 4.72698 41.8676 5.6509 40.9446C7.51132 39.0852 9.43462 37.1619 11.3212 35.2657C12.1 34.483 12.9784 34.2411 13.9323 34.5459C14.6966 34.7897 15.28 35.3982 15.4919 36.1712C15.7105 36.9694 15.5083 37.8207 14.9501 38.4496L14.9491 38.4486ZM43.4968 28.18C40.6041 31.0698 36.7536 32.6622 32.6545 32.6622H32.6526C28.5515 32.6622 24.703 31.0717 21.8142 28.1829C18.9254 25.2941 17.3349 21.4446 17.3368 17.3445C17.3387 13.2454 18.9312 9.39495 21.8229 6.50226C24.7127 3.61054 28.5593 2.01811 32.6526 2.01811H32.6564C41.1081 2.02005 47.9838 8.89575 47.9829 17.3455C47.9829 21.4417 46.3895 25.2902 43.4968 28.18Z" fill="#743FDD"/>
<path d="M40.0236 9.96289H40.0197C39.7537 9.96289 39.5225 10.0529 39.3512 10.2241C39.1364 10.4379 39.0184 10.7727 39.0174 11.1664C39.0155 12.636 39.0155 14.1055 39.0165 15.5751V19.1402C39.0165 20.6078 39.0165 22.0745 39.0174 23.5421C39.0184 24.258 39.3957 24.7088 40.0013 24.7185C40.2809 24.7233 40.5257 24.6324 40.7056 24.4563C40.9175 24.2483 41.0336 23.9262 41.0346 23.5489C41.0375 19.7816 41.0375 15.7328 41.0346 11.1722C41.0346 10.4389 40.637 9.96483 40.0236 9.96289Z" fill="#743FDD"/>
<path d="M31.0804 18.872C31.0804 18.3873 31.0804 17.9026 31.0824 17.4179C31.0843 16.2995 31.0862 15.1424 31.0756 14.0066C31.0698 13.4039 30.6364 12.9492 30.0675 12.9492H30.0646C29.4967 12.9512 29.0672 13.4068 29.0652 14.0105C29.0604 15.9919 29.0614 18.0061 29.0614 19.9546C29.0614 21.1871 29.0614 22.4187 29.0614 23.6512C29.0614 24.0749 29.2162 24.3681 29.548 24.5732C29.8634 24.7676 30.2213 24.7822 30.5309 24.6119C30.8686 24.4261 31.0727 24.0624 31.0766 23.6377C31.0882 22.5232 31.0853 21.3874 31.0824 20.2903C31.0814 19.8172 31.0804 19.3451 31.0804 18.872Z" fill="#743FDD"/>
<path d="M36.0571 16.0985C36.0532 15.4174 35.6372 14.9404 35.0451 14.9395H35.0441C34.4453 14.9395 34.0428 15.4029 34.0418 16.0946C34.038 18.3468 34.038 20.7838 34.0418 23.5459C34.0418 24.2599 34.4201 24.7098 35.0267 24.7195C35.3073 24.7233 35.5482 24.6334 35.7262 24.4582C35.9381 24.2502 36.0561 23.9261 36.058 23.5469C36.0619 22.681 36.0609 21.8006 36.06 20.9493C36.06 20.5739 36.06 20.1985 36.06 19.8232C36.06 19.4478 36.06 19.0773 36.06 18.7038C36.0609 17.8496 36.0619 16.9672 36.0571 16.0994V16.0985Z" fill="#743FDD"/>
<path d="M25.7711 18.1996C25.5882 18.0225 25.3483 17.9258 25.0938 17.9258C25.0861 17.9258 25.0784 17.9258 25.0706 17.9258C24.4979 17.9393 24.0925 18.3873 24.0858 19.0151C24.08 19.5395 24.0819 20.0745 24.0829 20.5911C24.0829 20.8252 24.0838 21.0594 24.0838 21.2935C24.0838 21.5305 24.0838 21.7675 24.0829 22.0046C24.0819 22.5357 24.08 23.0842 24.0858 23.6222C24.0916 24.2771 24.495 24.7173 25.09 24.7173H25.0929C25.6705 24.7163 26.0932 24.2723 26.099 23.6618C26.1126 22.1719 26.1135 20.6047 26.099 19.0026C26.0961 18.6862 25.98 18.4008 25.7711 18.1976V18.1996Z" fill="#743FDD"/>
</svg>
