<svg width="50" height="50" viewBox="0 0 50 50" fill="none" xmlns="http://www.w3.org/2000/svg">
<path d="M17.8829 15.9078C17.8829 15.0667 18.0506 14.6973 19.0558 14.6973H26.8918C28.9342 14.6973 30.8418 14.9997 32.6505 16.751C35.73 19.7109 34.4923 24.3901 33.1856 26.0723C31.9139 27.7546 30.3067 28.1932 30.3067 28.1932C30.3067 28.1932 31.3438 29.0673 32.0816 30.8847C32.4828 31.86 34.7917 37.0098 34.7917 37.0429C34.9594 37.3453 34.9944 37.9531 34.2896 37.9531H32.2472C31.2101 37.9531 30.9426 37.8169 30.5393 36.9758C29.7696 35.3276 28.3632 31.6247 27.8611 30.4802C27.359 29.3367 27.1233 28.8991 25.2826 28.8991H21.4984V37.3122C21.4984 37.6817 21.199 37.9851 20.8296 37.9851H18.5527C18.1843 37.9851 17.8818 37.6827 17.8818 37.3122V15.9078H17.8829ZM21.5334 25.6007H26.8918C28.6986 25.6007 30.7749 24.355 30.7749 21.9339C30.7749 19.6789 29.6019 17.9616 27.1244 17.9616C25.617 17.9616 21.5334 17.9275 21.5334 17.9275V25.6007Z" fill="#743FDD"/>
<path d="M6.3624 24.5914C7.05073 25.159 7.29869 25.8464 7.34911 26.6503C7.40981 27.4997 7.18449 28.1664 6.69473 28.7433C5.99097 29.5844 4.96208 29.6092 3.89615 29.6907C2.80038 29.7557 1.79104 29.8744 0.979242 29.185C0.403063 28.6917 0.0830778 28.12 0.0110554 27.221C-0.124758 25.3489 1.0132 24.4614 2.19025 24.2065L2.33223 26.0043C1.80853 26.1911 1.52764 26.4986 1.58732 27.1034C1.61098 27.4429 1.75606 27.6597 1.95669 27.7887C2.1851 27.9362 2.42278 28.0085 3.76342 27.9424C5.09275 27.8269 5.31705 27.7288 5.5218 27.5369C5.69054 27.4027 5.78005 27.1344 5.78519 26.8134C5.75021 26.4254 5.62366 26.1808 5.44052 26.0239C5.22959 25.8453 4.91578 25.7659 4.65341 25.7979L4.55978 25.8185L4.64107 26.8877L3.16152 26.9847L2.93414 24.1198L3.95274 24.0465C5.066 23.9557 5.75741 24.0785 6.36137 24.5894L6.3624 24.5914Z" fill="#743FDD"/>
<path d="M8.15374 19.2174L5.21419 19.752L5.04443 20.332L7.66398 21.0503L7.20098 22.781L0.160278 20.8676L0.907253 18.0636C1.33527 16.5135 2.66769 15.9562 3.79741 16.2813C4.76457 16.5403 5.20185 17.3092 5.3356 17.9243L8.67744 17.2019L8.15374 19.2174ZM2.45779 18.6188L2.19954 19.589L3.61324 19.9749L3.87149 19.0048C4.01451 18.5301 3.73362 18.1451 3.34573 18.0564C3.00311 17.9573 2.572 18.1255 2.45779 18.6188Z" fill="#743FDD"/>
<path d="M11.0254 12.4721C11.1612 13.208 11.0583 13.8726 10.551 14.6002C10.0438 15.3257 9.45423 15.6756 8.7196 15.8097C7.65573 16.0151 6.83262 15.4031 5.93542 14.7808C5.03823 14.1595 4.17808 13.6032 3.97127 12.5361C3.83649 11.8013 3.93835 11.1356 4.44662 10.4101C4.95489 9.68357 5.54445 9.33268 6.27907 9.19851C7.34192 8.99417 8.16503 9.6072 9.06325 10.2275C9.98 10.8198 10.8391 11.3751 11.0264 12.4711L11.0254 12.4721ZM6.44678 10.8921C6.22969 10.9138 5.95909 11.0231 5.77492 11.3101C5.59075 11.597 5.57634 11.8715 5.64631 12.0789C5.72553 12.3338 5.8706 12.5485 6.96946 13.2998C8.06832 14.0491 8.32348 14.0945 8.56836 14.0904C8.78545 14.0687 9.05811 13.9603 9.24228 13.6744C9.42645 13.3886 9.44086 13.113 9.37089 12.9056C9.29167 12.6507 9.14762 12.435 8.04774 11.6847C6.94991 10.9334 6.69372 10.89 6.44678 10.8931V10.8921Z" fill="#743FDD"/>
<path d="M14.9455 10.0965C13.7314 10.9768 12.1325 10.8757 11.1849 9.57324L8.41309 5.75162L9.85765 4.69894L12.6048 8.50199C12.9906 9.03658 13.5308 9.13979 13.9979 8.79405C14.463 8.44626 14.5689 7.90547 14.1533 7.3523L11.4082 3.55029L12.8538 2.49658L15.6287 6.31717C16.5568 7.6485 16.1596 9.21616 14.9455 10.0955V10.0965Z" fill="#743FDD"/>
<path d="M20.1619 4.62358L19.1186 4.92184L19.8779 7.40079L18.1669 7.9199L16.0402 0.945412L18.7945 0.128041C20.345 -0.330183 21.5108 0.504733 21.8606 1.66268C22.2115 2.82268 21.7135 4.16536 20.1619 4.62255V4.62358ZM19.1896 1.72253L18.2214 2.03008L18.6515 3.44397L19.6176 3.13539C20.0786 2.98574 20.2607 2.57603 20.131 2.21069C20.022 1.81335 19.6495 1.57289 19.1896 1.72253Z" fill="#743FDD"/>
<path d="M25.4597 0.77002C25.3702 0.77002 25.2817 0.772084 25.1922 0.773116V3.04359C25.2817 3.04256 25.3702 3.04049 25.4597 3.04049C28.4682 3.04049 31.3851 3.63082 34.1302 4.79599C36.7827 5.9209 39.1656 7.53294 41.2121 9.58566C43.2585 11.6384 44.8657 14.0286 45.9871 16.6891C47.1477 19.4426 47.7373 22.3684 47.7373 25.3861C47.7373 28.4038 47.1488 31.3296 45.9871 34.0831C44.8657 36.7436 43.2585 39.1338 41.2121 41.1865C39.1656 43.2393 36.7827 44.8513 34.1302 45.9762C31.3851 47.1404 28.4682 47.7317 25.4597 47.7317C22.4513 47.7317 19.5344 47.1414 16.7893 45.9762C14.1368 44.8513 11.7539 43.2393 9.70741 41.1865C7.71137 39.1844 6.1351 36.8603 5.01773 34.2781C4.885 34.2791 4.75125 34.2853 4.61852 34.2936C4.43949 34.338 4.26046 34.3823 4.08144 34.4298C3.79232 34.5072 3.50423 34.5908 3.21511 34.6682C3.10193 34.6982 2.98978 34.7281 2.87763 34.7621C2.83854 34.7735 2.80561 34.7838 2.77783 34.7921C6.46126 43.7202 15.2284 50.0032 25.4608 50.0032C39.0144 50.0032 50.0009 38.9821 50.0009 25.3882C50.0009 11.7942 39.0133 0.77002 25.4597 0.77002Z" fill="#743FDD"/>
</svg>
