<svg width="50" height="50" viewBox="0 0 50 50" fill="none" xmlns="http://www.w3.org/2000/svg">
<path d="M49.7855 3.61858C49.1747 1.5528 47.2404 0.0673342 45.0821 0.00635963C44.8308 -0.000999371 44.5754 5.19154e-05 44.3273 5.19154e-05H35.8181C25.6417 5.19154e-05 15.4652 5.19155e-05 5.28879 0.00215449C2.73416 0.00215449 0.716743 1.53808 0.147997 3.91504C0.0544329 4.30507 0.00712505 4.73399 0.00712505 5.19025C-0.000233952 18.4018 -0.00233653 31.7258 0.00291991 44.7922C0.00291991 47.4246 1.62295 49.3895 4.22699 49.9204C4.29427 49.9341 4.34894 49.9666 4.39204 49.9929L4.40466 50.0003H45.6151C45.7013 49.9751 45.7875 49.9519 45.8748 49.9277C46.0692 49.8741 46.2711 49.8184 46.4614 49.7522C48.2906 49.1172 49.4491 47.8252 49.9022 45.9129C49.9212 45.8319 49.9485 45.7562 49.9748 45.6827C49.9832 45.6595 49.9916 45.6353 50 45.6122V4.38497C49.9779 4.30717 49.9569 4.22938 49.9359 4.15158C49.8875 3.97391 49.8381 3.7952 49.7855 3.61858ZM48.2265 44.5799C48.2265 46.8643 46.8682 48.2278 44.5922 48.2278C37.9964 48.2278 31.4006 48.2278 24.8059 48.2278C18.2112 48.2278 11.8572 48.2278 5.3834 48.2268C3.15678 48.2268 1.77329 46.838 1.77329 44.604C1.77329 36.282 1.77329 27.959 1.77329 19.637V10.207H48.2275V19.7033C48.2275 27.9958 48.2275 36.2873 48.2275 44.5799H48.2265ZM48.2296 7.57772C48.2286 7.78167 48.2275 7.98668 48.2275 8.19378V8.35147H1.87631V8.19378C1.87631 7.79429 1.8637 7.38849 1.85213 6.99636C1.8248 6.10698 1.79641 5.1871 1.91311 4.29771C2.09603 2.91317 3.36178 1.8787 4.99022 1.78093C5.10902 1.77357 5.22781 1.77357 5.3424 1.77357H9.31311C21.076 1.77357 32.8377 1.77357 44.6006 1.77357C46.4214 1.77357 47.7618 2.7334 48.1003 4.27669C48.2076 4.76448 48.2118 5.27541 48.216 5.76846C48.217 5.91669 48.2191 6.06387 48.2223 6.21C48.2349 6.66311 48.2317 7.10675 48.2286 7.57562L48.2296 7.57772Z" fill="#743FDD"/>
<path d="M11.6049 41.9317C11.627 42.205 11.7531 42.4269 11.9602 42.5572C12.1684 42.6886 12.4375 42.7086 12.6982 42.6098C12.9243 42.5246 13.1429 42.3995 13.3279 42.2892C13.7937 42.0095 14.2573 41.7288 14.722 41.4471C15.6282 40.8983 16.5638 40.3306 17.4942 39.7871C17.778 39.621 18.1313 39.5211 18.4393 39.5211C21.8875 39.5117 25.3925 39.5106 28.7829 39.5096C30.5428 39.5096 32.3016 39.5095 34.0614 39.5074H34.0751C34.4525 39.5074 34.8415 39.5074 35.2031 39.4339C37.1879 39.0354 38.4726 37.4007 38.4768 35.2708C38.4831 31.053 38.4842 26.5419 38.4768 21.0742C38.4737 18.4681 36.7811 16.7839 34.1634 16.7828C28.4097 16.7797 22.4163 16.7807 15.8405 16.7849C15.4778 16.7849 15.1246 16.7912 14.7966 16.8564C12.8181 17.2538 11.5345 18.8707 11.526 20.9733C11.5166 23.3565 11.5187 25.7797 11.5208 28.1231C11.5208 29.1291 11.5229 30.1363 11.5229 31.1424V31.3001H11.505C11.505 32.0286 11.505 32.7571 11.505 33.4846C11.504 35.5662 11.5029 37.7192 11.5103 39.8365C11.5124 40.4946 11.5439 41.18 11.6059 41.9328L11.6049 41.9317ZM14.006 19.2555C14.476 18.7845 15.1624 18.528 15.9372 18.5343C20.3621 18.5669 24.8616 18.5616 29.2129 18.5574C30.8613 18.5553 32.5108 18.5543 34.1592 18.5543C35.7834 18.5543 36.6791 19.4489 36.6791 21.0731C36.6812 25.7671 36.6812 30.5263 36.6791 35.2203C36.6791 36.8435 35.7824 37.7381 34.1571 37.7381H30.6037C26.4722 37.7381 22.1998 37.7371 17.9978 37.7507C17.6677 37.7518 17.2829 37.8559 16.9686 38.0283C16.2758 38.4099 15.5851 38.8283 14.9175 39.232C14.6315 39.4055 14.3466 39.5779 14.0596 39.7482C13.9671 39.8029 13.8757 39.8523 13.759 39.9153C13.698 39.9479 13.6307 39.9837 13.554 40.0257L13.3206 40.1529V39.2499C13.3206 37.5983 13.3227 35.9467 13.3248 34.2952C13.33 29.9954 13.3364 25.5485 13.3006 21.1751C13.2943 20.3866 13.5382 19.7222 14.005 19.2544L14.006 19.2555Z" fill="#743FDD"/>
<path d="M24.0028 4.21049C23.8788 4.19998 23.7547 4.20103 23.6222 4.20208H23.5245C20.9898 4.20208 18.4552 4.20208 15.9216 4.20208H12.8308C10.4391 4.20208 8.04533 4.20208 5.65365 4.20208H5.51068C5.32775 4.19998 5.15534 4.19893 4.98293 4.21575C4.52562 4.26201 4.20708 4.61944 4.20813 5.08621C4.21024 5.6497 4.61393 5.9735 5.31619 5.9735C11.278 5.97455 17.2399 5.9735 23.2017 5.9735H23.7947C23.884 5.9735 23.9702 5.9756 24.0501 5.96404C24.5011 5.90306 24.8407 5.5225 24.8396 5.08096C24.8396 4.61524 24.4864 4.24939 24.0028 4.20944V4.21049Z" fill="#743FDD"/>
<path d="M44.874 4.30078C44.8613 4.30078 44.8487 4.30078 44.8361 4.30078C44.3946 4.3176 44.0571 4.63194 44.0676 5.01566C44.0739 5.2522 44.1749 5.47297 44.3515 5.63592C44.5291 5.80097 44.7594 5.88612 44.997 5.87456C45.4311 5.85458 45.777 5.53079 45.7665 5.15337C45.7612 4.91894 45.6635 4.70237 45.4942 4.54258C45.3271 4.38594 45.1073 4.30078 44.874 4.30078Z" fill="#743FDD"/>
<path d="M36.49 4.29988C36.4837 4.29988 36.4784 4.29988 36.4721 4.29988C36.0285 4.30829 35.6805 4.61316 35.6794 4.99373C35.6794 5.22501 35.773 5.44578 35.9454 5.61504C36.1178 5.78535 36.347 5.87996 36.5878 5.87471C37.023 5.8663 37.3773 5.55196 37.3783 5.1735C37.3783 4.93906 37.2879 4.71934 37.1208 4.55534C36.9526 4.39029 36.7286 4.29883 36.4889 4.29883L36.49 4.29988Z" fill="#743FDD"/>
<path d="M40.6845 4.2998C40.4406 4.2998 40.2251 4.38286 40.0769 4.53424C39.9497 4.6646 39.8834 4.83176 39.8866 5.01888C39.895 5.49196 40.2892 5.87673 40.7634 5.87673C40.9957 5.87673 41.2144 5.78843 41.3647 5.63599C41.4951 5.50353 41.5644 5.33112 41.5613 5.15135C41.5529 4.6667 41.1755 4.30086 40.6845 4.30086V4.2998Z" fill="#743FDD"/>
<path d="M22.9999 34.2741C24.4685 34.2836 25.7858 34.2825 27.0252 34.2741C27.3122 34.272 27.5677 34.1721 27.7433 33.9934C27.9031 33.8305 27.9861 33.6181 27.984 33.3784C27.9798 32.878 27.6034 32.5279 27.0494 32.509C26.8349 32.5016 26.6184 32.5037 26.3903 32.5048C26.282 32.5048 26.1716 32.5069 26.0581 32.5069H25.9004V27.9054C25.9004 27.1106 25.8615 26.6691 25.648 26.4567C25.4346 26.2454 24.9952 26.2097 24.2067 26.216C23.5213 26.2212 23.1554 26.462 23.0871 26.9508C23.0135 27.4796 23.2532 27.7877 23.9124 28.0126C23.9786 28.0347 24.0154 28.0862 24.0322 28.1104L24.0753 28.1556V32.5058H23.9176C23.8125 32.5058 23.7084 32.5058 23.6075 32.5048C23.5097 32.5048 23.4141 32.5037 23.3195 32.5037C23.2038 32.5037 23.0903 32.5048 22.9767 32.5079C22.3954 32.5258 22.0095 32.8843 22.018 33.3994C22.0264 33.9114 22.4301 34.271 23.002 34.2741H22.9999Z" fill="#743FDD"/>
<path d="M25.0456 23.7895C25.2611 23.7948 25.464 23.7044 25.6217 23.5446C25.7909 23.3732 25.8866 23.1356 25.8824 22.8907C25.875 22.4103 25.4798 22.0171 24.9993 22.0139C24.7638 22.0171 24.5283 22.1159 24.3496 22.2967C24.1783 22.4702 24.0826 22.6952 24.0879 22.9138C24.0973 23.3764 24.5452 23.7853 25.0456 23.7885V23.7895Z" fill="#743FDD"/>
</svg>
