<svg width="50" height="55" viewBox="0 0 50 55" fill="none" xmlns="http://www.w3.org/2000/svg">
<path d="M48.5286 35.1805C47.873 34.7645 47.2299 34.3621 46.5539 34.023C45.9887 33.7393 45.8734 33.3437 45.8734 32.8373C45.887 25.0254 45.8983 15.7644 45.8712 6.31805C45.8633 3.67868 44.1949 1.36485 41.6199 0.423264C39.0043 -0.533014 36.1807 0.162152 34.4275 2.19453C33.9539 2.74275 33.5164 3.31923 33.0711 3.91153C32.8778 4.16812 32.6811 4.24838 32.3431 4.20542C30.4396 3.96692 28.8311 4.54905 27.564 5.93373C27.33 6.18919 27.2271 6.39718 27.2407 6.58821C27.2543 6.78376 27.391 6.9827 27.6725 7.21555C29.8891 9.04672 32.1464 10.9084 34.5744 12.9057C34.8536 13.1352 35.0865 13.2335 35.2877 13.2076C35.4878 13.1804 35.6856 13.0256 35.8913 12.7328C37.0047 11.1548 37.2421 9.42652 36.5989 7.59874C36.5198 7.37493 36.5062 7.0313 36.6373 6.83462C37.0036 6.28414 37.4229 5.77096 37.8208 5.29847C38.4018 4.60783 39.2688 4.39758 40.0826 4.75138C40.901 5.10744 41.2978 5.77322 41.2966 6.78715C41.2899 12.3847 41.2899 18.076 41.2899 23.5797C41.2899 25.768 41.2899 27.9564 41.2899 30.1459C41.2899 30.2499 41.2831 30.3493 41.2752 30.4759C41.2706 30.5415 41.2661 30.6138 41.2616 30.6952L41.2514 30.8772L40.8728 30.6647C40.7349 30.5879 40.6139 30.52 40.4952 30.4511L38.8008 29.4586C37.0861 28.4537 35.3126 27.4149 33.5718 26.3863C32.7568 25.9059 31.9622 25.7488 31.1416 25.9093C30.6001 26.0144 30.0462 26.1015 29.5105 26.1863C29.2618 26.2258 29.012 26.2642 28.7633 26.3061L23.185 27.2284V24.4941H26.5308C28.761 24.4941 30.9912 24.493 33.2214 24.4953H33.2271C34.3416 24.4953 35.0537 24.1087 35.4685 23.279C35.8563 22.5047 35.8359 21.6309 35.4154 20.9414C34.9927 20.2485 34.2545 19.8461 33.3887 19.8359C32.2776 19.8235 31.1461 19.8258 30.0519 19.828C29.4856 19.8292 28.9193 19.8303 28.353 19.8303C28.2388 19.8303 28.1235 19.8224 27.9901 19.8145C27.9189 19.8099 27.8421 19.8054 27.7539 19.8009L27.5335 19.7896L27.6714 19.6178C28.5304 18.5428 28.5779 17.3785 28.5508 15.9701C28.535 15.1405 28.3665 14.972 27.5538 14.9709C25.708 14.9698 23.8632 14.9698 22.0173 14.9709H19.0773V14.8579C19.0773 14.4747 19.0762 14.0983 19.0739 13.7264C19.0705 12.8153 19.0671 11.9551 19.0852 11.0825C19.0977 10.4958 19.5656 10.0663 20.1986 10.0629H20.2065C20.8124 10.0629 21.286 10.4823 21.3335 11.0621C21.3527 11.2927 21.3504 11.5256 21.3482 11.7505C21.3471 11.9303 21.3448 12.1168 21.3538 12.2965C21.3764 12.7407 21.633 12.9917 22.058 12.9826C22.4718 12.9747 22.7069 12.7385 22.7227 12.3157C22.7385 11.8794 22.7521 11.373 22.7125 10.8835C22.6108 9.64355 21.6161 8.74266 20.2936 8.69179C19.0084 8.64206 17.9311 9.46947 17.7322 10.6575C17.6802 10.9695 17.6836 11.3006 17.687 11.6217C17.687 11.7223 17.6892 11.8229 17.6881 11.9223C17.6847 12.5972 17.6847 13.2731 17.6858 13.9694V14.9709H17.5739C17.4293 14.9709 17.2913 14.9709 17.1568 14.9698C16.8754 14.9686 16.6109 14.9664 16.3475 14.9732C15.7733 14.9867 15.5551 15.2071 15.5416 15.7836C15.5077 17.1615 15.476 18.4637 16.4153 19.6178L16.5487 19.7817L16.3373 19.8009C16.2763 19.8065 16.2266 19.8111 16.1836 19.8156C16.1056 19.8235 16.0491 19.8292 15.9937 19.8314C14.5491 19.906 13.6279 20.8318 13.646 22.1905C13.664 23.5604 14.6079 24.4647 16.0502 24.4941C16.1972 24.4975 16.3452 24.4964 16.4922 24.4953H18.3301V28.0333L18.2352 28.0491C17.8667 28.1101 17.4993 28.17 17.1331 28.2299C16.1768 28.3859 15.1866 28.5476 14.219 28.7182C13.8279 28.7872 13.6923 28.5396 13.5849 28.3407L13.5521 28.2819L11.782 25.1396C10.3759 22.6437 8.96969 20.1479 7.5624 17.6521C7.39624 17.3571 7.23121 17.0609 7.06618 16.7659C6.63891 16.0007 6.19694 15.2083 5.74027 14.4453C5.08128 13.3455 3.97466 12.8063 2.78214 13.0018C1.68005 13.1827 0.718119 13.879 0.27163 14.8194C-0.156774 15.7203 -0.0765188 16.767 0.498831 17.7685C1.8383 20.1027 3.17777 22.4877 4.47315 24.7937C5.5142 26.6474 6.5903 28.5634 7.65961 30.4409C7.82465 30.7303 7.98855 31.0196 8.15245 31.309C9.10646 32.9932 10.0933 34.734 11.1886 36.3594C13.4606 39.7324 16.6188 41.1193 20.5762 40.4818C20.9831 40.4163 21.381 40.31 21.8015 40.197C21.9993 40.1438 22.2016 40.0896 22.4073 40.0399L22.5475 40.0059V44.1464H22.4345C22.0693 44.1464 21.7065 44.1442 21.3459 44.143C20.5762 44.1396 19.7793 44.1351 19.0004 44.1498C16.2605 44.1996 13.8698 46.1901 13.3159 48.8826C13.2967 48.9742 13.2741 49.0657 13.2503 49.1629C13.239 49.2093 13.2266 49.2579 13.2153 49.3088L13.195 49.3958H13.1057C12.6512 49.3958 12.2002 49.3947 11.7515 49.3924C10.7613 49.389 9.73833 49.3856 8.73797 49.3992C7.29564 49.4184 6.26137 50.4448 6.22294 51.8961C6.18563 53.2808 6.7655 54.0494 8.28922 54.6327H44.6809C44.7047 54.6237 44.7295 54.6135 44.7533 54.6044C44.8211 54.5773 44.8912 54.5502 44.9646 54.5276C46.1673 54.158 46.8308 53.1169 46.7404 51.7424C46.6613 50.5386 45.8192 49.6128 44.6447 49.4387C44.2729 49.3834 43.8806 49.389 43.502 49.3935C43.3708 49.3958 43.2408 49.3969 43.1109 49.3958C42.3366 49.3924 41.5623 49.3924 40.8196 49.3935H39.8679L39.8396 49.3212C39.7469 49.0782 39.6667 48.8408 39.5887 48.6102C39.4259 48.1309 39.2722 47.6788 39.0461 47.273C37.935 45.2768 36.2089 44.2267 33.9177 44.151C33.1525 44.1261 32.3996 44.1317 31.6027 44.1385C31.2422 44.1419 30.8793 44.1442 30.5108 44.1442H30.3978V42.9788C30.3967 41.3149 30.3955 39.7426 30.4147 38.142C30.417 37.9521 30.7403 37.7362 30.9132 37.7283C31.1947 37.7159 31.4818 37.6966 31.7587 37.6797C32.5929 37.6254 33.4565 37.57 34.2941 37.6605C36.3039 37.8764 38.3385 38.1714 40.3053 38.4574C40.866 38.5387 41.4266 38.6201 41.9873 38.7004C42.2224 38.7343 42.4858 38.8315 42.7684 38.9909C43.1527 39.2068 43.537 39.434 43.91 39.6544C44.3983 39.9426 44.9025 40.2411 45.4077 40.5146C46.9541 41.3545 48.601 40.8944 49.5075 39.3684C50.4276 37.8198 50.0343 36.1367 48.5298 35.1805H48.5286ZM35.0887 11.3628L35.0232 11.4826L28.9713 6.49891L29.0821 6.41187C30.6126 5.21144 32.698 5.23857 34.1517 6.47743C35.5793 7.69369 35.9727 9.74867 35.0887 11.3639V11.3628ZM39.0992 3.2141C38.1294 3.26271 37.311 3.70129 36.6667 4.51514C36.4395 4.80225 36.2146 5.09049 35.9874 5.38212L35.6042 5.87269L34.2048 4.77738L34.2613 4.69034C35.3092 3.0762 36.5853 1.55927 38.8031 1.3965C40.8038 1.24955 42.4168 1.98993 43.5935 3.59616C44.222 4.4541 44.5148 5.47142 44.5114 6.79506C44.5035 11.2046 44.5046 15.6887 44.5057 20.0247C44.5057 21.5609 44.5057 23.097 44.5057 24.6343V32.7988L44.3362 32.6993C44.1836 32.6101 44.0377 32.5275 43.8976 32.4484C43.546 32.2495 43.242 32.0777 42.9492 31.8742C42.7853 31.7612 42.6892 31.4978 42.6825 31.3068C42.6644 30.7947 42.6678 30.2736 42.67 29.7706C42.67 29.5852 42.6723 29.3999 42.6723 29.2133V22.9862C42.6734 17.6351 42.6745 12.1032 42.6689 6.66055C42.6689 5.64888 42.2981 4.74121 41.6267 4.10369C40.97 3.47974 40.0725 3.16324 39.0992 3.21184V3.2141ZM16.9658 16.4811L16.976 16.3793H27.0825L27.0994 16.4731C27.2565 17.3616 27.0519 18.2048 26.5229 18.8457C26.0131 19.4629 25.266 19.8099 24.4182 19.8235C23.7513 19.8337 23.0776 19.8371 22.4073 19.8371C21.8331 19.8371 21.2623 19.8348 20.7005 19.8325L19.9172 19.8292C18.9541 19.8258 18.1651 19.5138 17.6372 18.9283C17.0969 18.328 16.8641 17.4825 16.9658 16.4822V16.4811ZM16.7499 23.1117H16.4108C15.8309 23.1117 15.4602 23.01 15.2431 22.7918C15.0894 22.6369 15.0171 22.4278 15.0205 22.1509C15.0295 21.3235 15.736 21.2116 16.4266 21.2116H26.3274C28.5757 21.2116 30.8228 21.2116 33.0711 21.2138H33.1038C33.2937 21.2138 33.4927 21.2138 33.6826 21.2636C34.1133 21.3766 34.3472 21.6988 34.3427 22.1701C34.3382 22.646 34.0974 22.9625 33.6634 23.0608C33.4452 23.1106 33.2191 23.1106 33.001 23.1106C29.3567 23.1117 25.7125 23.1128 22.0682 23.1128C20.2947 23.1128 18.5223 23.1128 16.7499 23.1128V23.1117ZM21.7404 24.5246V27.4624L19.7804 27.7868V24.5246H21.7404ZM43.9507 50.7737C44.4628 50.7737 44.8471 50.9082 45.0924 51.1727C45.3094 51.4067 45.4043 51.7266 45.375 52.1245C45.3309 52.7281 44.9352 53.1531 44.3418 53.2333C44.2457 53.2469 44.1485 53.2492 44.0547 53.2492C44.0287 53.2492 44.0016 53.2492 43.9756 53.2492H43.8987C32.29 53.2492 20.6824 53.2492 9.07368 53.2492C8.53677 53.2492 8.13775 53.118 7.88795 52.8592C7.67657 52.641 7.5771 52.3358 7.59066 51.9549C7.61327 51.305 8.04393 50.846 8.68597 50.7839C8.83744 50.7692 8.99004 50.7714 9.13811 50.7726C9.18672 50.7726 9.23533 50.7737 9.28506 50.7737H31.0703C35.3634 50.7737 39.6576 50.7737 43.9507 50.7737ZM33.972 45.5322C35.9082 45.5402 37.6953 46.9327 38.221 48.8419C38.2447 48.929 38.2549 49.016 38.2662 49.1075C38.2707 49.1505 38.2763 49.1946 38.2831 49.2409L38.3023 49.3709H14.6531L14.6802 49.2353C14.6915 49.181 14.7006 49.129 14.7096 49.0782C14.7288 48.9696 14.7481 48.8668 14.7786 48.7639C15.346 46.8672 17.0924 45.5368 19.0253 45.53C24.3346 45.5108 29.2233 45.5108 33.9731 45.5311L33.972 45.5322ZM23.9717 39.9257C23.974 39.7708 24.0961 39.5041 24.2622 39.4521C25.4672 39.0745 26.6586 38.7185 27.9201 38.3409L28.9634 38.029V44.1159H23.9627V43.0952C23.9616 42.0033 23.9604 40.9724 23.9717 39.9268V39.9257ZM38.4414 36.7517C38.3012 36.7347 38.1723 36.72 38.0503 36.7076C37.8061 36.6816 37.5947 36.659 37.3834 36.6172C33.5153 35.8677 29.706 36.1673 25.7351 37.5327C23.6654 38.2449 21.8297 38.7682 20.1217 39.1322C19.7058 39.2215 19.2762 39.2633 18.8411 39.2633C16.2119 39.2633 13.386 37.7136 12.2262 35.4778L12.155 35.3399L14.184 35.003C15.4319 34.795 16.664 34.5904 17.8961 34.387L19.8041 34.0705C23.3489 33.4827 27.0146 32.8757 30.6216 32.2902C30.79 32.263 31.215 32.2178 31.5078 32.3862C33.3525 33.4465 35.2176 34.543 37.0205 35.6044L38.3001 36.3572C38.3374 36.3786 38.3656 36.4058 38.4131 36.4499C38.4414 36.4759 38.4775 36.5098 38.5295 36.5539L38.8065 36.7969L38.4414 36.7517ZM47.7464 39.2746C47.4921 39.4216 47.2061 39.495 46.9111 39.495C46.5697 39.495 46.2159 39.3978 45.8847 39.2034C43.1866 37.6266 40.4466 36.0181 37.7971 34.4616C36.7391 33.8399 35.681 33.2193 34.623 32.5976C34.3721 32.4507 34.1223 32.3026 33.8725 32.1534C33.2146 31.7623 32.5341 31.3576 31.8503 30.988C31.6073 30.8569 31.2715 30.7958 31.0172 30.8377C25.1394 31.7939 19.3395 32.7547 12.9124 33.8229C11.6599 34.0309 11.1219 33.7766 10.5092 32.6903L8.97082 29.9628C6.54848 25.6674 4.12726 21.3721 1.70944 17.0745C1.37598 16.4811 1.31834 15.8741 1.54667 15.3643C1.76596 14.8748 2.22827 14.5301 2.84657 14.3944C3.60165 14.2294 4.23465 14.5583 4.68 15.3439C5.45769 16.7162 6.24441 18.1133 7.00514 19.4652L12.6919 29.5615C13.0616 30.216 13.2029 30.2838 13.9602 30.1572L15.5065 29.9006C20.7423 29.0302 26.1567 28.1293 31.4863 27.2714C31.8684 27.2104 32.3669 27.3098 32.7286 27.5201C36.9075 29.9492 41.1452 32.4382 45.2438 34.8448L47.6899 36.2814C48.2935 36.6352 48.584 37.1043 48.5795 37.7147C48.584 38.3873 48.272 38.9705 47.7453 39.2746H47.7464Z" fill="#743FDD"/>
</svg>
