<svg width="50" height="65" viewBox="0 0 50 65" fill="none" xmlns="http://www.w3.org/2000/svg">
<path d="M28.6522 64.9369C27.576 64.7413 26.483 64.6092 25.4263 64.3386C20.0506 62.9593 15.891 59.8966 13.0872 55.1076C8.84209 47.8567 4.6695 40.563 0.473591 33.2824C-0.464013 31.6558 0.0177391 30.0513 1.67797 29.1655C4.91685 27.4392 9.09463 28.4752 11.0747 31.5846C12.2649 33.452 13.319 35.4075 14.4353 37.3229C14.5415 37.5055 14.6102 37.7593 14.7695 37.8499C15.057 38.0131 15.4299 38.2087 15.7122 38.1452C15.9609 38.0895 16.1849 37.7243 16.3248 37.4472C16.4193 37.2607 16.3546 36.9913 16.3546 36.7595C16.3546 28.1152 16.352 19.4721 16.3572 10.8278C16.3585 8.10951 18.0757 6.08667 20.715 5.65672C23.4138 5.21641 26.1891 7.29364 26.36 10.0339C26.4973 12.2446 26.4209 14.4694 26.4338 16.6878C26.4403 17.8883 26.4338 19.0888 26.4338 20.4059C27.8856 19.5939 29.3269 19.3633 30.8292 19.8645C32.3197 20.3618 33.3234 21.394 33.9696 22.8729C35.4369 21.8679 36.9987 21.5325 38.6719 22.1036C40.3218 22.667 41.3759 23.8442 41.9134 25.4487C42.6463 25.1988 43.3366 24.8608 44.0631 24.7339C47.1013 24.2029 49.8985 26.4524 49.927 29.5307C49.9788 35.0255 50.0747 40.5242 49.8985 46.0138C49.5903 55.6204 42.1659 63.5823 32.6189 64.7892C32.3094 64.8281 32.0012 64.8876 31.693 64.9369H28.6496H28.6522ZM18.6079 23.9076C18.6079 28.2822 18.6041 32.6569 18.6105 37.0315C18.6118 38.0507 18.3399 38.9533 17.5706 39.6552C16.0917 41.0059 13.8267 40.6666 12.7764 38.908C11.6186 36.968 10.5347 34.9853 9.36788 33.0518C7.97183 30.7402 5.1124 29.914 2.80465 31.1002C2.19857 31.411 2.11699 31.6597 2.46147 32.2567C6.69493 39.5866 10.8857 46.9437 15.1839 54.236C18.7659 60.3123 25.8899 63.5848 32.8209 62.5022C41.2723 61.1813 47.5662 54.0055 47.6763 45.4621C47.7436 40.2432 47.6983 35.0229 47.6918 29.8026C47.6892 28.11 46.5198 26.8927 44.9295 26.8823C43.3159 26.872 42.1206 28.1126 42.1037 29.8181C42.0972 30.5149 42.118 31.2129 42.0947 31.9096C42.0726 32.5649 41.6336 32.9936 41.0224 33.0091C40.4072 33.0247 39.963 32.6258 39.8827 31.9718C39.8594 31.784 39.8646 31.5923 39.8646 31.402C39.8633 29.923 39.8776 28.4428 39.8581 26.9639C39.8413 25.6546 39.164 24.6652 38.0477 24.2482C36.2061 23.5593 34.3128 24.888 34.2675 26.9302C34.2351 28.4092 34.2714 29.8894 34.2468 31.3683C34.2364 32.0119 33.7611 32.4561 33.1654 32.4652C32.5671 32.4743 32.1061 32.0352 32.0517 31.3994C32.0361 31.2103 32.0413 31.0199 32.0413 30.8296C32.0413 28.843 32.0387 26.8564 32.0413 24.8698C32.0413 24.1058 31.8613 23.4064 31.3537 22.8146C30.5999 21.9353 29.3904 21.6102 28.3026 21.9923C27.1979 22.3795 26.4675 23.3533 26.4468 24.6082C26.4131 26.679 26.4364 28.7497 26.4299 30.8205C26.4299 31.073 26.4325 31.332 26.3833 31.5768C26.2655 32.1518 25.8744 32.4393 25.3046 32.46C24.7632 32.4794 24.288 32.0534 24.2167 31.5043C24.1869 31.2751 24.1999 31.0407 24.1999 30.8076C24.1999 24.1718 24.196 17.5361 24.2025 10.9003C24.2025 9.9627 23.9448 9.13906 23.2157 8.52781C22.3273 7.78316 21.3146 7.62128 20.2552 8.09785C19.1726 8.58608 18.6105 9.46152 18.6092 10.6555C18.6015 15.0729 18.6066 19.489 18.6041 23.9063L18.6079 23.9076Z" fill="#743FDD"/>
<path d="M13.0134 10.9003C13.0004 12.1357 13.3967 13.4968 14.0882 14.7866C14.5169 15.587 14.2203 16.3601 13.4342 16.5362C12.7958 16.6787 12.4073 16.3472 12.1081 15.8175C9.77836 11.7032 10.5204 6.45311 13.916 3.0925C17.0875 -0.0479591 21.8545 -0.885845 25.8666 0.990658C29.9589 2.90601 32.3637 7.08767 31.9752 11.5957C31.847 13.0914 31.4145 14.4888 30.6893 15.7994C30.2839 16.5298 29.6791 16.7771 29.0847 16.465C28.4579 16.1361 28.3297 15.4937 28.7363 14.7154C31.3471 9.72307 28.8037 3.87211 23.4267 2.50067C18.1507 1.15383 12.9706 5.21635 13.0121 10.9015L13.0134 10.9003Z" fill="#743FDD"/>
</svg>
